<?xml version="1.0" standalone="no"?>
<!DOCTYPE svg PUBLIC "-//W3C//DTD SVG 1.1//EN" "http://www.w3.org/Graphics/SVG/1.1/DTD/svg11.dtd" >
<svg xmlns="http://www.w3.org/2000/svg">
<metadata>
Created by FontForge 20120731 at Mon Jul 11 17:18:20 2016
 By admin
</metadata>
<defs>
<font id="iconfont" horiz-adv-x="1024" >
  <font-face 
    font-family="iconfont"
    font-weight="500"
    font-stretch="normal"
    units-per-em="1024"
    panose-1="2 0 6 3 0 0 0 0 0 0"
    ascent="896"
    descent="-128"
    x-height="792"
    bbox="-0.173914 -128 1069.84 896.174"
    underline-thickness="50"
    underline-position="-100"
    unicode-range="U+0078-E684"
  />
<missing-glyph horiz-adv-x="374" 
d="M34 0v682h272v-682h-272zM68 34h204v614h-204v-614z" />
    <glyph glyph-name=".notdef" horiz-adv-x="374" 
d="M34 0v682h272v-682h-272zM68 34h204v614h-204v-614z" />
    <glyph glyph-name=".null" horiz-adv-x="0" 
 />
    <glyph glyph-name="nonmarkingreturn" horiz-adv-x="341" 
 />
    <glyph glyph-name="x" unicode="x" horiz-adv-x="1001" 
d="M281 543q-27 -1 -53 -1h-83q-18 0 -36.5 -6t-32.5 -18.5t-23 -32t-9 -45.5v-76h912v41q0 16 -0.5 30t-0.5 18q0 13 -5 29t-17 29.5t-31.5 22.5t-49.5 9h-133v-97h-438v97zM955 310v-52q0 -23 0.5 -52t0.5 -58t-10.5 -47.5t-26 -30t-33 -16t-31.5 -4.5q-14 -1 -29.5 -0.5
t-29.5 0.5h-32l-45 128h-439l-44 -128h-29h-34q-20 0 -45 1q-25 0 -41 9.5t-25.5 23t-13.5 29.5t-4 30v167h911zM163 247q-12 0 -21 -8.5t-9 -21.5t9 -21.5t21 -8.5q13 0 22 8.5t9 21.5t-9 21.5t-22 8.5zM316 123q-8 -26 -14 -48q-5 -19 -10.5 -37t-7.5 -25t-3 -15t1 -14.5
t9.5 -10.5t21.5 -4h37h67h81h80h64h36q23 0 34 12t2 38q-5 13 -9.5 30.5t-9.5 34.5q-5 19 -11 39h-368zM336 498v228q0 11 2.5 23t10 21.5t20.5 15.5t34 6h188q31 0 51.5 -14.5t20.5 -52.5v-227h-327z" />
    <glyph glyph-name="uniE600" unicode="&#xe600;" 
d="M1005 499l-378 378q-21 21 -53 19h-124q-32 2 -53 -19l-77 -77v96h-192v-288l-109 -109q-21 -21 -19 -53v-126q0 -27 19 -45.5t45 -18.5h64v-320q0 -27 19 -45.5t45 -18.5h640q26 0 45 18.5t19 45.5v320h64q26 0 45 18.5t19 45.5v126q3 32 -19 53zM896 384h-128v-384
h-128v256h-256v-256h-128v384h-128v35l349 349h70l349 -349v-35z" />
    <glyph glyph-name="uniE601" unicode="&#xe601;" 
d="M-18 914zM599 340q51 20 89.5 59t60.5 90.5t22 108.5q0 116 -82.5 198t-198.5 82t-198 -82t-82 -198q0 -43 13 -84t36 -74.5t56 -60t71 -42.5q-89 -22 -160.5 -79t-113.5 -140t-42 -176q0 -20 4 -43h831q1 10 1.5 20.5t0.5 21.5q0 142 -87 252.5t-221 145.5v1z" />
    <glyph glyph-name="uniE602" unicode="&#xe602;" 
d="M938 57l-214 216q-2 2 -8 7q57 89 57 194q0 98 -47.5 180t-129 130t-178 48t-178 -48t-129 -130t-47.5 -179.5t47.5 -179.5t129 -130t178.5 -48q104 0 193 58q4 -6 6 -8l214 -216q22 -22 53 -22t53 22t22 53t-22 53zM419 230q-101 0 -172 71.5t-71 173t71 173t171.5 71.5
t171.5 -71.5t71 -173t-71 -173t-171 -71.5z" />
    <glyph glyph-name="uniE603" unicode="&#xe603;" 
d="M900 296h-299v-300q0 -21 -18.5 -35.5t-45 -17.5t-53 0t-45 17.5t-18.5 35.5v300h-299q-21 0 -35.5 18.5t-18 44.5t0 52.5t18 45t35.5 18.5h299v299q0 21 18.5 36t45 18t53 0t45 -18t18.5 -36v-299h299q21 0 35.5 -18.5t18 -45t0 -52.5t-18 -44.5t-35.5 -18.5z" />
    <glyph glyph-name="uniE604" unicode="&#xe604;" 
d="M960 288l-122 -40l56 -111l-134 -134l-111 56l-39 -123h-190l-39 123l-111 -56l-134 134l55 111l-126 40v190l126 39l-55 111l134 135l111 -56l39 125h190l39 -125l111 56l134 -135l-56 -111l122 -39v-190zM515.5 625q-98.5 0 -168 -70t-69.5 -169t69.5 -168.5t168 -69.5
t168 69.5t69.5 168.5t-69.5 169t-168 70zM515.5 279q-44.5 0 -75.5 31.5t-31 75.5t31 75.5t75.5 31.5t75.5 -31.5t31 -75.5t-31 -75.5t-75.5 -31.5z" />
    <glyph glyph-name="uniE605" unicode="&#xe605;" 
d="M849 469h-474v175q0 19 -13 30.5t-31 9.5q-15 -3 -32 -20l-86 -86q-145 -145 -156 -155q-19 -20 -19 -42t20 -41q3 -4 17 -18q195 -194 234 -233q21 -21 44 -10q22 11 22 37q-1 49 0 175h474q37 0 63 26t26 63t-26 63t-63 26z" />
    <glyph glyph-name="uniE606" unicode="&#xe606;" 
d="M519 829q-92 0 -175.5 -36t-143.5 -96t-96 -143.5t-36 -175.5t36 -175t96 -143.5t143.5 -96t175.5 -35.5t175.5 35.5t143.5 96t96 143.5t36 175t-36 175.5t-96 143.5t-143.5 96t-175.5 36zM775 379q-20 -36 -57 -73t-70.5 -62.5t-69.5 -62.5t-57 -74q-19 36 -54.5 70
t-71 60.5t-69 55.5t-56.5 68.5t-27 86.5q-1 32 11 62.5t37 50.5q33 31 79.5 37t88.5 -14t63 -60q28 56 93 71.5t116 -18.5q32 -19 49 -53.5t15.5 -73.5t-20.5 -71z" />
    <glyph glyph-name="uniE607" unicode="&#xe607;" 
d="M511 896q-104 0 -198.5 -40.5t-163 -109t-109 -163t-40.5 -198.5q0 -105 40.5 -200t109 -163.5t163 -109t198.5 -40.5t199 40.5t163.5 109t109.5 164t41 199.5t-40.5 198.5t-109 163t-163.5 109t-200 40.5zM805 193h-586v345l292 -216l293 216v-345h1zM511 356l-292 217
h585z" />
    <glyph glyph-name="uniE608" unicode="&#xe608;" 
d="M585 284l-291 292l-73 -510h729l72 510zM950 649h-583l218 -219zM2 576v-73h206l13 73h-219zM44 357h137l13 73h-150v-73zM75 211h80l13 73h-93v-73z" />
    <glyph glyph-name="uniE609" unicode="&#xe609;" 
d="M416 747q-3 -1 -9 -1.5t-22.5 -6t-32 -13t-33.5 -22.5t-31 -34.5t-21 -50.5t-6 -67q2 -17 4.5 -32t9.5 -47t19 -58.5t28.5 -55t42 -48.5t56.5 -27q9 -2 11.5 -2.5t19.5 -1t28.5 3.5t31 13.5t34 25.5t31.5 43.5t29 64.5q50 143 8 225q-8 13 -11.5 19t-21 24t-36.5 27.5
t-53 16.5t-76 4zM551 234q-17 3 -46 5t-109 -2t-149 -21q-3 -1 -7 -2q-18 -5 -29.5 -8.5t-31 -13t-31.5 -20t-21.5 -27.5t-10.5 -38v-79h562q-2 0 -14 6t-31.5 22t-38 38t-31.5 59.5t-12 80.5zM618 262h286v-84h-286v84zM719 363h85v-285h-85v285z" />
    <glyph glyph-name="uniE60A" unicode="&#xe60a;" 
d="M470 803q-85 -2 -145.5 -75.5t-57.5 -171.5q1 -57 27 -108t68 -83q52 -40 112 -40q61 0 114 40q44 34 70 87.5t26 113.5q-1 99 -64.5 169.5t-149.5 67.5zM528 262q-27 -9 -54 -9q-60 0 -112 40q-49 -17 -168.5 -77t-119.5 -72v-126q0 -24 33 -24h473q-70 72 -70 174
q0 48 18 94zM754.5 366q-80.5 0 -137.5 -58t-57 -140.5t57 -140.5t137.5 -58t138 58t57.5 140.5t-57.5 140.5t-138 58zM753 66l-18 -23l-100 108l37 34l60 -66l122 150l39 -31z" />
    <glyph glyph-name="uniE60B" unicode="&#xe60b;" 
d="M513 830q93 0 175.5 -35.5t144 -97t97.5 -144t36 -175.5q0 -94 -36 -176.5t-97.5 -144t-144 -97.5t-175.5 -36q-94 0 -176.5 36t-144 97.5t-97.5 144t-36 176.5q0 93 36 175.5t97.5 144t144 97t176.5 35.5zM513 -13q81 0 152 30.5t124.5 84t84 124.5t30.5 152t-30.5 152
t-84 124.5t-124.5 84t-152 30.5q-82 0 -153 -30.5t-124.5 -84t-84 -124.5t-30.5 -152t30.5 -152t84 -124.5t124.5 -84t153 -30.5zM513 706q67 0 125 -25.5t102 -69.5t69.5 -102t25.5 -125t-25.5 -125.5t-69.5 -102.5t-102 -69.5t-125 -25.5t-125.5 25.5t-102.5 69.5
t-69.5 102.5t-25.5 125.5t25.5 125t69.5 102t102.5 69.5t125.5 25.5z" />
    <glyph glyph-name="uniE60C" unicode="&#xe60c;" 
d="M947 642l-439 -439q-2 -3 -15 -11.5t-20 -7.5q-7 0 -19.5 8t-14.5 12l-149 148q-12 11 -12 27.5t11.5 27.5t27.5 11t28 -11l128 -129l420 419q11 11 27 11t27.5 -11.5t11 -27t-11.5 -27.5zM780 668q-5 -15 -19.5 -22.5t-29.5 -2.5q-10 3 -18 14l-1 -2q-52 43 -115 63
q-69 23 -138.5 15t-129 -37.5t-106 -83.5t-67.5 -122q-24 -68 -16 -138t37.5 -129.5t83.5 -105.5t122 -68q69 -24 138.5 -16t129 38t106 83.5t68.5 121.5q23 74 13 153q-1 3 -2 8t-3 18.5t1 19.5l1 3q4 16 18.5 23t30.5 2q12 -4 19 -14t7 -23q21 -108 -12 -213
q-22 -66 -62.5 -122t-93.5 -93.5t-116.5 -60t-130.5 -22t-136 20.5q-83 26 -148.5 82.5t-101.5 129.5t-46 158t19 169q21 66 62 122t94 93.5t116.5 60t130.5 22t136 -20.5q71 -23 132 -71q2 0 9.5 -7.5t14.5 -20t4 -21.5z" />
    <glyph glyph-name="uniE60D" unicode="&#xe60d;" 
d="M288 749l365 -365l-365 -365l90 -89l454 454l-454 454z" />
    <glyph glyph-name="uniE60E" unicode="&#xe60e;" 
d="M251 134h-31h31zM924 509q0 15 -11 26t-26.5 11t-26.5 -11t-11 -26v-305q0 -47 -7.5 -58t-44.5 -12h52l-674 -1v1h45q-27 1 -35 8t-10 29v442q1 27 9.5 35.5t35.5 9.5h569l-279 -251l-201 167q-11 11 -26.5 11t-26.5 -11t-11 -26.5t11 -26.5l225 -187l3 -3
q11 -11 26.5 -11t26.5 11l375 337l1 1q2 1 3 3q3 3 5 7q-7 24 -26.5 39t-44.5 15h-682q-29 -3 -48.5 -24t-19.5 -50v-532q3 -29 24.5 -48.5t50.5 -19.5h40h594h40q31 0 53 22t22 53v37v338zM175 658h22h-22zM797 134h-24h24z" />
    <glyph glyph-name="uniE60F" unicode="&#xe60f;" 
d="M668 222h5h-5zM229 97v5v-5zM229 669v-5v5zM874 272l-1 481q-2 31 -25 52t-54 21h-572q-31 -3 -52 -26t-21 -54v-43h-1l1 -640v-42q0 -34 23.5 -57.5t56.5 -23.5h41h118q17 0 29 12t12 28.5t-12 28.5t-29 12l-127 -1l49 2q-48 0 -64 14t-17 61l1 -77h-1v725h1l-1 -76
q1 47 17 61.5t64 14.5h-26l465 1l-36 -1q46 0 62 -12.5t18 -52.5v-377h-158h-43q-34 0 -57.5 -24t-23.5 -57v-40v-194q-4 -21 11 -36q6 -7 14 -10t16 -3q21 0 33 19l269 269q4 2 8 6q13 12 13 30q0 4 -1 9zM793 746v-27v27zM592 78v70q0 44 15.5 58.5t60.5 15.5l-76 -1v-71
l-1 72h144zM309 544h404q17 0 29 12t12 28.5t-12 28.5t-29 12h-404q-17 0 -28.5 -12t-11.5 -28.5t11.5 -28.5t28.5 -12zM309 383h404q17 0 29 12t12 28.5t-12 28.5t-29 12l-404 -1q-17 0 -28.5 -11.5t-11.5 -28.5t11.5 -28.5t28.5 -11.5z" />
    <glyph glyph-name="uniE610" unicode="&#xe610;" 
d="M422 451v-2v-3v-125v-25l109 -68v39v233v39l-109 -68v-20zM375 446h-15q-7 0 -11.5 -5t-4.5 -11v-93q0 -7 4.5 -11.5t11.5 -4.5h15q7 0 11.5 4.5t4.5 11.5v93q0 6 -4.5 11t-11.5 5zM510 832q-91 0 -174 -35.5t-143 -95.5t-95.5 -143t-35.5 -174t35.5 -173.5t95.5 -142.5
t143 -95.5t174 -35.5t174 35.5t142.5 95.5t95 142.5t35.5 173.5t-35.5 174t-95 143t-142.5 95.5t-174 35.5zM562 228q0 -13 -9 -22.5t-22 -9.5l-140 94h-47q-13 0 -22 9t-9 22v125q0 12 9 21.5t22 9.5h47l140 93q13 0 22 -9t9 -22v-311zM609 276v31q27 5 44.5 26.5
t17.5 49.5t-17.5 49.5t-44.5 27.5v31q40 -6 66.5 -36.5t26.5 -71.5t-26.5 -71t-66.5 -36z" />
    <glyph glyph-name="uniE611" unicode="&#xe611;" 
d="M0 404h1024v-48h-1024v48z" />
    <glyph glyph-name="uniE612" unicode="&#xe612;" 
d="M117 888zM915 471v-109q0 -23 -16 -39t-38 -16h-690q-22 0 -38 16t-16 39v109q0 22 16 38t38 16h690q22 0 38 -16t16 -38z" />
    <glyph glyph-name="uniE613" unicode="&#xe613;" 
d="M779 269q4 -4 7 -13.5t5 -12.5q13 -26 17.5 -58t-4.5 -67t-33 -63t-74 -46t-121 -17q-188 0 -262 73q67 16 140.5 68t122.5 126q37 56 67 129q6 -6 12 -11q6 -7 48 -39.5t61 -51.5q-14 17 -45 50t-38 42q-16 18 -28 34q42 112 61 230t15 163q-2 16 -9.5 23t-19 5
t-20 -5.5t-16.5 -7.5q-2 -2 -4 -3q-5 -3 -12 -9t-26 -26t-34.5 -41.5t-29.5 -54.5t-17.5 -66.5t7 -76.5t38.5 -86q-30 -64 -67 -123q-30 -46 -63.5 -80.5t-62 -51t-50.5 -23.5t-38 -6q-20 20 -48 20q-26 0 -45 -18t-20 -44v-2q-5 -50 36 -65q18 -21 42 -40.5t59 -39
t76 -30.5t92.5 -15.5t108.5 4.5q71 11 121 39.5t72 64.5t27 76.5t-8 78.5t-40 67zM678 771v1v1q-18 -139 -73 -273q-50 139 73 271z" />
    <glyph glyph-name="uniE614" unicode="&#xe614;" 
d="M920 -23q0 -17 -12 -29t-29 -12t-29 12t-12 29h-1q-14 118 -102.5 199.5t-209.5 85.5q-1 0 -4.5 -0.5t-5.5 -0.5t-5.5 0.5t-5.5 0.5q-120 -4 -208.5 -85.5t-102.5 -199.5h-1q0 -17 -12 -29t-29 -12t-29 12t-12 29v3q0 6 3 14q15 106 80 190.5t161 126.5q-57 39 -90.5 101
t-33.5 134q0 118 83.5 201.5t201.5 83.5t201.5 -83.5t83.5 -201.5q0 -72 -33.5 -134t-91.5 -101q100 -43 165.5 -130t77.5 -197q1 0 1 -2v-2zM718 546q0 84 -59.5 143.5t-143.5 59.5t-144 -59.5t-60 -143.5t60 -143.5t144 -59.5t143.5 59.5t59.5 143.5z" />
    <glyph glyph-name="uniE615" unicode="&#xe615;" 
d="M1017 360l-488 487q-7 7 -17 7t-17 -7l-366 -366l-122 -121q-7 -8 -7 -18t7 -17t17 -7t18 7l80 80v-404q0 -40 28.5 -68.5t68.5 -28.5h171q10 0 17 7t7 17v220h220q10 0 17 7t7 17t-7 17t-17 7h-244q-10 0 -17 -7t-7 -17v-219h-147q-20 0 -34 14t-14 34v453l341 341
l470 -470q7 -7 17.5 -7t17.5 7t7 17.5t-7 17.5zM878 294q-10 0 -17.5 -7.5t-7.5 -17.5v-268q0 -20 -14 -34t-34 -14h-171q-10 0 -17 -7.5t-7 -17.5t7 -17t17 -7h171q40 0 68.5 28.5t28.5 68.5v268q0 10 -7 17.5t-17 7.5z" />
    <glyph glyph-name="uniE616" unicode="&#xe616;" 
d="M791 235q-7 7 -16 7t-15.5 -6.5t-6.5 -15.5t7 -16q102 -103 102 -248q0 -9 6.5 -15.5t15.5 -6.5t15.5 6.5t6.5 15.5q0 79 -30 151t-85 128zM511.5 832q-108.5 0 -185.5 -77t-77 -186q0 -76 40.5 -139.5t106.5 -96.5q-93 -28 -163 -98q-56 -56 -86 -128t-30 -151
q0 -9 6.5 -15.5t15.5 -6.5t15.5 6.5t6.5 15.5q0 145 103 248q99 99 238 103q5 -1 10 -1q108 0 185.5 77.5t77.5 186t-77.5 185.5t-186 77zM515 350q-2 1 -3 1q-5 0 -10 -1q-88 4 -148.5 67.5t-60.5 151.5q0 91 64 155t154.5 64t155 -64t64.5 -155q0 -89 -63 -153t-153 -66z
" />
    <glyph glyph-name="uniE617" unicode="&#xe617;" 
d="M970 495q-10 30 -45 43q-72 28 -217 80q-91 123 -141 187q-20 26 -54 26q-32 0 -52 -25q-49 -62 -144 -188q-141 -50 -216 -79q-34 -13 -44 -44q-10 -32 10 -63q43 -68 128 -192q3 -153 6 -234q2 -41 26 -59q16 -11 37 -11q13 0 28 4q78 22 220 65q144 -45 221 -67
q9 -2 17 2.5t11 14.5q1 4 1 9l3 2v3v3q0 79 -44 143t-116 92q35 23 55 59.5t20 78.5q0 69 -49 118t-118 49t-118 -49t-49 -118q0 -42 20 -78.5t54 -59.5q-45 -18 -80.5 -51.5t-56.5 -77.5q1 -13 10 -18t14 -4t7 3l3 2q22 48 63.5 80.5t93.5 41.5q19 -4 39 -4q19 0 38 4
q72 -13 121 -67t55 -128q-82 24 -208 64q-7 2 -13 0q-163 -49 -227 -67q-18 -5 -25 0q-6 4 -7 23q-4 97 -6 239q0 7 -4 13q-89 130 -132 197q-8 13 -4 23q3 10 16 16q101 38 222 81q6 2 10 8q87 115 148 192q6 8 16 8q11 0 18 -9q40 -51 145 -191q4 -6 10 -8
q205 -76 223 -82q14 -6 17 -14q2 -8 -3 -17q-21 -32 -55 -83t-57 -86l-23 -35q-4 -6 -4 -12l-4 -149q0 -9 6.5 -16t16.5 -8q9 1 16 7.5t7 15.5l4 142q92 138 131 198q18 28 9 57zM388 345q0 52 36.5 88.5t88.5 36.5t88.5 -36.5t36.5 -88.5q0 -44 -28.5 -78.5t-71.5 -43.5
q-13 1 -26 1q-12 0 -24 -1q-43 9 -71.5 43.5t-28.5 78.5z" />
    <glyph glyph-name="uniE618" unicode="&#xe618;" 
d="M643 -63q-13 0 -20 10l-177 276l-346 98q-15 5 -16.5 19.5t11.5 21.5l804 467q14 7 26.5 -2.5t7.5 -24.5l-197 -624q-3 -9 -11.5 -13.5t-17.5 -1.5t-13.5 11t-1.5 17l180 569l-709 -410l304 -87q9 -2 13 -9l182 -283q5 -8 3 -17t-10 -14q-6 -3 -12 -3z" />
    <glyph glyph-name="uniE619" unicode="&#xe619;" 
d="M513 682h-2h-2q-20 0 -34 -14.5t-14 -34.5v-313q0 -20 14 -34.5t34 -15.5h2h2q20 1 33.5 15.5t13.5 34.5v313q0 20 -13.5 34.5t-33.5 14.5zM511 880q-101 0 -192.5 -39t-158 -105.5t-105.5 -158t-39 -192t39 -192t105.5 -158t158 -105.5t192.5 -39t192.5 39t157.5 105.5
t105.5 158t39.5 192t-39.5 192t-105.5 158t-157.5 105.5t-192.5 39zM510.5 -10q-107.5 0 -198.5 53t-144 144t-53 198.5t53 198.5t144 144t198.5 53t199 -53t144.5 -144t53 -198.5t-53 -198.5t-144.5 -144t-199 -53zM510.5 188q-20.5 0 -35 -14.5t-14.5 -35t14.5 -35
t35 -14.5t35 14.5t14.5 35t-14.5 35t-35 14.5z" />
    <glyph glyph-name="uniE61A" unicode="&#xe61a;" 
d="M943 560q16 16 16 39t-16 39.5t-39 16.5t-39 -17l-353 -353l-353 353q-17 17 -40 17t-39 -16.5t-16 -39.5t16 -39l432 -432z" />
    <glyph glyph-name="uniE61B" unicode="&#xe61b;" 
d="M913 244l-361 362q-18 17 -42 17t-42 -17l-361 -362q-17 -17 -17 -41.5t17 -41.5t41.5 -17t41.5 17l320 320l320 -320q17 -17 41.5 -17t41.5 17t17 41.5t-17 41.5z" />
    <glyph glyph-name="uniE61C" unicode="&#xe61c;" 
d="M510 388zM63 387.5q0 90.5 35.5 173.5t95.5 143t142.5 95t173.5 35t173.5 -35t142.5 -95t95.5 -143t35.5 -173.5t-35.5 -173.5t-95.5 -142.5t-142.5 -95t-173.5 -35.5t-173.5 35.5t-142.5 95t-95.5 142.5t-35.5 173.5z" />
    <glyph glyph-name="uniE61D" unicode="&#xe61d;" 
d="M512 -63q-91 0 -173.5 35.5t-142.5 95t-95 142.5t-35 174t35 173.5t95 142.5t142.5 95t173.5 35t174 -35t142.5 -95t95 -142.5t35.5 -173.5t-35.5 -174t-95 -142.5t-142.5 -95t-174 -35.5zM512.5 750q-99.5 0 -184 -49t-133.5 -133.5t-49 -184t49 -184t133.5 -133.5
t184 -49t184 49t133.5 133.5t49 184t-49 184t-133.5 133.5t-184 49zM611 230l-149 140h-8v245h71v-207l135 -126z" />
    <glyph glyph-name="uniE61E" unicode="&#xe61e;" 
d="M512 -65q-91 0 -174 35.5t-143 95.5t-95.5 143t-35.5 174t35.5 174t95.5 143t143 95t174 35t173.5 -35t142.5 -95t95.5 -143t35.5 -174t-35.5 -174t-95.5 -143t-142.5 -95.5t-173.5 -35.5zM144 383q0 -37 8 -74l108 -61q5 -52 19 -80q10 -22 20 -84q57 -41 125 -58
q45 57 62 71q23 19 5 104q-66 28 -80 56q-6 13 -37 19t-64.5 8.5t-40.5 5.5q-8 5 -24.5 19t-29.5 26l-12 12l3 3q2 2 7.5 6.5t11 6t14 -0.5t16.5 -10l33 -33q0 3 -1 9t-1 21.5t3 28.5t11 26t21 18q7 3 30 12t35 14t29 13t26 16t12 16q7 21 -8.5 50.5t-33.5 29.5
q-11 0 -40.5 -9t-53.5 -19l-24 -9q0 2 1 6t3.5 15t5.5 21t7.5 22.5t9.5 21t11.5 13.5t13.5 4q94 -13 95 -3q0 3 -6 8q-23 20 -111 54q-82 -49 -130.5 -132.5t-48.5 -182.5zM485 749q25 -24 20 -58q-15 -101 9 -107q8 -2 19 8q23 20 55 63t46 74q-60 21 -122 21q-9 0 -27 -1z
M749 663l-69 -80l33 -9q34 -13 0 -29q-39 -18 -102 -99t-63 -113q0 -36 11 -62t31 -23q13 2 26.5 2.5t29.5 -1t28 -9t15 -20.5q7 -28 31 -139q74 51 116.5 130.5t42.5 171.5q0 83 -34.5 156t-95.5 124z" />
    <glyph glyph-name="uniE61F" unicode="&#xe61f;" 
d="M515 -4l-88 74q-262 230 -337 404q-77 181 77 263q58 31 116 37t95.5 -4t72 -31t45 -30.5t15.5 -16.5q6 7 16 16.5t45 30.5t72.5 31t95 4t115.5 -37q208 -110 1 -395q-115 -159 -318 -327zM509 584q-10 11 -34 30.5t-39 28.5q-1 1 -7.5 5.5t-11 7t-14.5 7.5t-18 8.5
t-20 7t-23 5t-25 1.5t-27.5 -2t-29 -7t-30.5 -14q-46 -24 -51 -66q-2 -8 -2 -17q0 -37 21.5 -83.5t51 -87.5t80 -95t88.5 -91t96 -91q58 54 95 90.5t87 90.5t79 95t50 87t21 83q0 10 -2 18q-6 43 -52 67q-17 9 -33 15.5t-30.5 8t-26.5 3t-25 -2t-20.5 -5t-19.5 -7.5
t-16.5 -8.5t-15 -9.5t-12.5 -8q-53 -33 -84 -64z" />
    <glyph glyph-name="uniE620" unicode="&#xe620;" 
d="M510 831q-91 0 -173.5 -35.5t-142.5 -95t-95.5 -142.5t-35.5 -173.5t35.5 -173.5t95.5 -143t142.5 -95t173.5 -35t173.5 35t142.5 95t95.5 143t35.5 173.5t-35.5 173.5t-95.5 142.5t-142.5 95t-173.5 35.5zM783 513l-306 -300q-3 -5 -6 -8l-15 -14q-14 -15 -20 -8
l-146 153q-7 6 8 20l14 15q14 14 21 8l109 -115l298 292q6 6 14.5 6t14.5 -6l14 -14q6 -6 6 -14.5t-6 -14.5z" />
    <glyph glyph-name="uniE621" unicode="&#xe621;" 
d="M513 832q-91 0 -174 -35.5t-143 -95t-95.5 -142.5t-35.5 -174t35.5 -174t95.5 -142.5t143 -95t174 -35.5t173.5 35.5t142.5 95t95.5 142.5t35.5 174t-35.5 174t-95.5 142.5t-142.5 95t-173.5 35.5zM512.5 -19q-109.5 0 -202.5 54t-147 147t-54 203t54 203t147 147
t202.5 54t202.5 -54t147.5 -147t54.5 -203t-54.5 -203t-147.5 -147t-202.5 -54z" />
    <glyph glyph-name="uniE622" unicode="&#xe622;" 
d="M923 601h-145v122q0 42 -29.5 71.5t-71.5 29.5h-514q-42 0 -71.5 -29.5t-29.5 -71.5v-156v-3v-578q0 -14 10 -24t24 -10h827q14 0 24 10t10 24v581q0 14 -10 24t-24 10zM129 701q0 23 16.5 39.5t39.5 16.5h469q24 0 40.5 -16.5t16.5 -39.5v-100h-582v100zM889 19h-760
v515h760v-515zM710.5 153q46.5 0 79 33t32.5 79.5t-32.5 79t-79 32.5t-79 -32.5t-32.5 -79t32.5 -79.5t79 -33zM710.5 332q27.5 0 47.5 -19.5t20 -47t-20 -47.5t-47.5 -20t-47.5 20t-20 47.5t20 47t47.5 19.5z" />
    <glyph glyph-name="uniE623" unicode="&#xe623;" 
d="M780 833h-536q-74 0 -126 -52.5t-52 -126.5v-536q0 -74 52 -126.5t126 -52.5h536q74 0 126.5 52.5t52.5 126.5v536q0 74 -52.5 126.5t-126.5 52.5zM468 225l-153 154l48 47l104 -105l195 195l47 -50l-194 -194z" />
    <glyph glyph-name="uniE624" unicode="&#xe624;" 
d="M782 830h-536q-74 0 -126 -52.5t-52 -126.5v-535q0 -74 52 -126.5t126 -52.5h536q74 0 126 52.5t52 126.5v535q0 74 -52 126.5t-126 52.5zM916 143q0 -67 -47 -114t-114 -47h-482q-67 0 -114 47t-47 114v482q0 66 47 113t114 47h482q67 0 114 -47t47 -113v-482z" />
    <glyph glyph-name="uniE625" unicode="&#xe625;" 
d="M510 833q-91 0 -174 -35.5t-143 -95.5t-95.5 -143t-35.5 -174.5t35.5 -174t95.5 -142.5t143 -95.5t174 -35.5t174 35.5t143 95.5t95.5 142.5t35.5 174t-35.5 174.5t-95.5 143t-143 95.5t-174 35.5zM510 -11q-107 0 -198.5 53t-144 144t-52.5 198.5t52.5 198.5t144 144
t198.5 53t198 -53t144 -144t53 -198.5t-53 -198.5t-144 -144t-198 -53zM487 233q-46 0 -46 -47q0 -22 12 -34.5t34 -12.5t33.5 12.5t11.5 34.5t-11.5 34.5t-33.5 12.5zM601.5 575.5q-35.5 29.5 -95.5 29.5q-72 0 -134 -35l26 -54q23 12 48 20.5t55 8.5q32 0 49.5 -14
t17.5 -40q0 -22 -11 -38.5t-47 -45.5q-31 -24 -43.5 -46.5t-12.5 -56.5v-19h61v13q0 25 9.5 40t38.5 38q33 26 47 42.5t20.5 34.5t6.5 41q0 52 -35.5 81.5z" />
    <glyph glyph-name="uniE626" unicode="&#xe626;" 
d="M649 262q19 0 32.5 13.5t13.5 33t-13.5 33t-32.5 13.5t-32.5 -13.5t-13.5 -33t13.5 -33t32.5 -13.5zM649 608q0 16 -11.5 27.5t-27.5 11.5h-322q-16 0 -27.5 -11.5t-11.5 -27.5v-69h400v69zM249 140h523v353h-523v-353zM649 385q32 0 54.5 -22.5t22.5 -54t-22.5 -54
t-54.5 -22.5t-54.5 22.5t-22.5 54t22.5 54t54.5 22.5zM757 831h-492q-83 0 -141.5 -58.5t-58.5 -141.5v-491q0 -83 58.5 -141.5t141.5 -58.5h492q82 0 140.5 58.5t58.5 141.5v491q0 83 -58.5 141.5t-140.5 58.5zM818 117q0 -10 -7 -17t-16 -7h-569q-9 0 -16 7t-7 17v506
q0 29 20.5 49.5t49.5 20.5h353q28 0 48.5 -20.5t20.5 -49.5v-84h100q9 0 16 -7t7 -16v-399z" />
    <glyph glyph-name="uniE627" unicode="&#xe627;" 
d="M510 832q-96 0 -177.5 -47.5t-129 -128t-47.5 -175.5q0 -55 19 -114.5t46.5 -108.5t65.5 -99.5t70 -85t67 -67.5t49.5 -45t23.5 -19q6 -5 13 -5t13 5q9 7 23.5 19t49.5 45t67.5 67.5t70.5 85t65.5 99.5t46 108.5t18.5 114.5q0 95 -47.5 175.5t-129 128t-177.5 47.5z
M510 -15q-27 23 -56.5 50.5t-78.5 82t-85.5 108.5t-64 123t-27.5 132q0 128 91.5 218.5t220.5 90.5t220.5 -90.5t91.5 -218.5q0 -63 -27.5 -132t-64 -123t-85.5 -108.5t-78.5 -82t-56.5 -50.5zM510 623q-60 0 -102.5 -42.5t-42.5 -102.5t42.5 -103t102.5 -43q12 0 26 3
q9 2 13.5 9t3 15.5t-8.5 13.5t-15 3q-11 -2 -19 -2q-43 0 -73.5 30.5t-30.5 73.5t30.5 73t73.5 30t73.5 -30t30.5 -73q0 -8 -2 -19q-1 -8 3.5 -15t13 -9t16 3t8.5 14q3 14 3 26q0 60 -43 102.5t-103 42.5z" />
    <glyph glyph-name="uniE628" unicode="&#xe628;" 
d="M922 538q-12 15 -30.5 34.5t-31.5 32.5l-13 12q-34 -46 -57 -65q-17 -14 -42 -24.5t-43 -10.5q-10 0 -24.5 3t-23.5 6l-9 3q2 4 5 12t7.5 25.5t2.5 26.5q-12 44 -63 70q-135 -153 -194 -196q-40 -30 -96 -64.5t-70 -40.5q-3 -1 -35.5 -8t-63.5 -18t-42 -26
q-42 -55 -25 -95q31 -74 77 -91q89 -32 213 -9q78 14 181.5 41.5t170.5 53.5q189 72 203 85q10 9 22 42t15 57q4 28 -5.5 74.5t-28.5 69.5zM604 635q23 -21 34 -44q10 -20 -13 -55q-35 12 -94 16q19 20 37 40.5t27 31.5zM509 529q9 0 17 1q9 0 27 -2.5t32 -5.5l14 -2
q-28 -22 -61 -47q-30 19 -57 28q14 13 28 28zM439 464q12 9 25 21q27 -9 55 -26q-31 -23 -51 -36q-23 13 -49 25zM493 408l12 8q20 12 40 26q10 -7 19 -14q32 -26 58.5 -60.5t40.5 -60.5q-35 -14 -49 -19q-2 -1 -5 -2q-24 62 -116 122zM585 277q-27 -8 -62 -18
q-29 51 -71 79q-17 11 -39 24q27 14 59 34l6 -4q29 -21 62 -56t45 -59zM399 433q26 -11 49 -23q-40 -24 -60 -33l-38 22q25 16 49 34zM326 383q19 -6 38 -16q-19 -7 -40 -14q-46 -13 -61 -4q29 13 63 34zM104 209q-4 7 -7 13q-12 27 15 64q9 12 27 21t33.5 13.5t46.5 11.5
q2 1 4 1q13 -5 40 -12q43 -10 128 30q17 -11 33 -24q44 -38 73 -75q-146 -37 -236 -46q-70 -8 -157 3zM902 314q-9 -11 -151 -63q-13 -5 -19 -8q-76 -28 -198 -61t-196 -43q-124 -17 -184 11q-16 8 -35 34q67 -9 163 -2q120 9 362 88q74 24 289 120q-8 -48 -31 -76zM686 316
q-22 51 -59 87q-32 30 -63 53q35 26 63 53q23 -10 54 -14.5t53 -1.5q24 4 57.5 31t56.5 57q26 -19 51.5 -59.5t32.5 -81.5q2 -8 2 -16q-43 -29 -248 -108z" />
    <glyph glyph-name="uniE629" unicode="&#xe629;" 
d="M234.5 350q-31.5 0 -53.5 -22t-22 -53.5t22 -53.5t53.5 -22t53.5 22t22 53.5t-22 53.5t-53.5 22zM235 218q-23 0 -39.5 16.5t-16.5 40t16.5 39.5t39.5 16t39.5 -16t16.5 -39.5t-16.5 -40t-39.5 -16.5zM356 418l403 33q19 -2 34 11q20 18 -32 52q-40 26 -165 25
q-110 -2 -211 -52q-24 -12 -37.5 -26.5t-14.5 -21.5l-1 -8q3 -8 9 -11t10 -3zM618 519q57 2 95 -8q44 -12 63 -34q4 -4 1 -5q-4 0 -159 -12v59zM498 507q59 9 101 11v-60l-244 -19q1 2 4 5.5t14 13.5t25.5 18.5t41.5 17.5t58 13zM959 348q-1 38 -26 57q2 26 -11 53
q-6 15 -39 55t-42 49q-5 5 -37 9q-8 1 -13 2q-38 5 -120.5 6.5t-157.5 -5.5q-65 -8 -133.5 -37t-113.5 -64q-111 -13 -175 -81q-19 -21 -23.5 -48t-0.5 -55q2 -17 18 -26t32 -9h16q1 8 -1 12.5t-5 4.5h-2q-20 2 -26 4q-4 2 -6.5 4t-5 13t-2.5 31t9.5 38t16.5 24.5t25 22.5
q29 26 143 48q108 95 330 107q58 3 134.5 -5t88.5 -16q9 -5 42.5 -50t37.5 -55q1 -3 2 -8.5t1 -10.5t-0.5 -10t-0.5 -8v-4q18 -14 24 -40q6 -30 -9 -57q-5 -8 -1.5 -11.5t12.5 -2.5q8 2 14 23.5t5 39.5zM731 273h-396q-5 0 -5 -5v-8q0 -5 5 -5h396q5 0 5 5v8q0 5 -5 5z
M827.5 350q-31.5 0 -54 -22t-22.5 -53.5t22.5 -53.5t54 -22t53.5 22t22 53.5t-22 53.5t-53.5 22zM827 218q-23 0 -39.5 16.5t-16.5 40t16.5 39.5t39.5 16t39.5 -16t16.5 -39.5t-16.5 -40t-39.5 -16.5z" />
    <glyph glyph-name="uniE62A" unicode="&#xe62a;" 
d="M880 270h-242l-33 -35h69l-97 -150l-141 105l-89 -125l-191 110l15 60h229l-39 35h-218l-80 -333h896zM716 235h136l32 -135l-216 61zM334 24v-52h-226l40 167l199 -115h-13zM361 24l83 116l143 -106l62 96l244 -69l21 -89h-545v52h-8zM511 219q48 0 107 64.5t99 152.5
t40 152q0 101 -72 173t-173.5 72t-174 -72t-72.5 -173q0 -64 40 -152t99 -152.5t107 -64.5zM511 798q87 0 149 -61.5t62 -148.5q0 -58 -37 -138t-87.5 -138t-86.5 -58t-86.5 58t-87 138t-36.5 138q0 87 61.5 148.5t148.5 61.5zM634 605q0 51 -36 87t-87 36t-87 -36t-36 -87
t36 -87t87 -36t87 36t36 87zM423 605q0 36 26 62t62 26t62 -26t26 -62t-26 -62t-62 -26t-62 26t-26 62z" />
    <glyph glyph-name="uniE62B" unicode="&#xe62b;" 
d="M415 170h175v35h-175v-35zM870 677h-717q-36 0 -61.5 -25.5t-25.5 -61.5v-332q0 -37 17.5 -62.5t43.5 -25.5h43v35h-43q-10 0 -18 16t-8 37v332q0 22 15 37.5t37 15.5h717q22 0 37 -15.5t15 -37.5v-332q0 -21 -10 -37t-25 -16h-52v-35h52q29 0 49.5 26t20.5 62v332
q0 36 -25.5 61.5t-61.5 25.5zM292.5 293q-43.5 0 -74 -31t-30.5 -74t30.5 -74t74 -31t74.5 31t31 74t-31 74t-74.5 31zM293 118q-29 0 -49.5 20.5t-20.5 49.5t20.5 49.5t49.5 20.5t49.5 -20.5t20.5 -49.5t-20.5 -49.5t-49.5 -20.5zM712.5 293q-43.5 0 -74 -31t-30.5 -74
t30.5 -74t74 -31t74 31t30.5 74t-30.5 74t-74 31zM712.5 118q-28.5 0 -49 20.5t-20.5 49.5t20.5 49.5t49 20.5t49 -20.5t20.5 -49.5t-20.5 -49.5t-49 -20.5zM345 608h-210v-193h210v193zM310 450h-140v123h140v-123zM623 608h-223v-193h223v193zM588 450h-153v123h153v-123z
M887 608h-209v-193h209v193zM852 450h-139v123h139v-123z" />
    <glyph glyph-name="uniE62C" unicode="&#xe62c;" 
d="M910 -29l1 19q0 7 -7 15.5t-19 13.5q-99 41 -244 84q-15 5 -24 13t-12.5 20t-4.5 20t-1 21q0 36 23 83q16 34 21 72l2 14l9 11q17 19 26 67q7 34 2 49l-1 1q-1 4 -2 7l-1 2v2q-3 20 -0.5 56.5t8.5 66.5q3 17 -4 46.5t-28 55.5q-41 52 -123 58h-44q-81 -6 -122 -58
q-21 -26 -28 -55.5t-4 -46.5q6 -29 8.5 -66t-0.5 -57v-1v-1q-1 -5 -4 -10q-5 -15 2 -49q9 -48 26 -67l9 -11l2 -14q5 -38 21 -72q15 -31 15 -84q0 -13 -0.5 -21t-4 -20t-12.5 -20t-23 -12q-55 -16 -131.5 -43.5t-111.5 -43.5q-18 -7 -18 -26v-14q-24 -9 -47 -21v35
q0 50 46 69q36 16 114 44t134 44q5 2 6 6t1 23q0 42 -10 64q-19 41 -25 86q-25 29 -37 89q-10 48 1 75q1 3 1 5q2 8 -0.5 42t-7.5 63q-5 26 4.5 65.5t36.5 73.5q54 69 157 76h48q104 -7 158 -76q27 -34 36.5 -73.5t4.5 -65.5q-5 -29 -7.5 -63t-0.5 -42q0 -1 1 -5
q11 -27 2 -75q-13 -60 -37 -89q-6 -45 -26 -86q-17 -38 -17 -63q0 -19 1 -23t6 -6q148 -43 249 -86q26 -11 40.5 -31t14.5 -41v-41q-22 12 -48 22z" />
    <glyph glyph-name="uniE62D" unicode="&#xe62d;" 
d="M606 744q17 -21 22.5 -46t3.5 -38q-14 -73 -7 -103v-2l1 -1q0 -3 2 -6v-1q5 -12 -1 -41q-8 -40 -22 -56l-8 -9l-1 -12q-4 -31 -18 -60q-18 -39 -18 -69q0 -11 0.5 -17.5t3.5 -16.5t10.5 -17t19.5 -11q19 -5 44 -13q9 18 26 32q-34 11 -59 19q-4 1 -5 4.5t-1 19.5
q0 21 15 53q16 34 21 71q21 24 31 74q8 40 -1 63q-1 3 -2 4q-1 7 1 35t6 53q4 21 -3.5 54t-30.5 62q-45 57 -132 63h-40q-86 -6 -131 -63q-22 -29 -30 -62t-4 -54q5 -25 7 -53t0 -35q0 -1 -1 -4q-9 -23 -1 -63q10 -50 31 -74q5 -37 21 -71q8 -19 8 -54q0 -16 -1 -19.5
t-5 -4.5q-120 -35 -207 -73q-38 -17 -38 -58v-29q19 9 39 17v12q0 16 15 22q84 37 203 72q12 4 19.5 10.5t10 16.5t3 16.5t0.5 17.5q0 44 -12 70q-13 29 -18 60l-1 12l-8 9q-14 16 -22 56q-6 28 -1 40q2 5 3 9v1v1q7 30 -6 103q-3 13 3 38t23 46q34 44 102 49h37
q68 -5 103 -49zM909 484l-389 -419l232 -5l159 -125zM880 4l-119 94h-162l281 308v-402z" />
    <glyph glyph-name="uniE62E" unicode="&#xe62e;" 
d="M537 404q0 97 -69 166t-166 69t-166 -69t-69 -166q0 -61 38 -144.5t94.5 -145.5t102.5 -62t102.5 62t94.5 145.5t38 144.5zM301.5 85q-34.5 0 -82.5 56t-83 132.5t-35 130.5q0 83 59 142.5t142 59.5t142 -59.5t59 -142.5q0 -54 -35 -130.5t-83.5 -132.5t-83 -56zM302 538
q-49 0 -83 -34t-34 -83t34 -83t83 -34t83 34t34 83t-34 83t-83 34zM302 337q-35 0 -59.5 24.5t-24.5 59.5t24.5 59.5t59.5 24.5t59.5 -24.5t24.5 -59.5t-24.5 -59.5t-59.5 -24.5zM797 807q-66 0 -112.5 -47t-46.5 -112q0 -43 25 -99t63.5 -97t70.5 -41t70 41t63.5 97
t25.5 99q0 65 -46.5 112t-112.5 47zM797 445q-20 0 -50 34.5t-53 83.5t-23 85q0 52 37 88.5t89 36.5t89 -36.5t37 -88.5q0 -36 -23 -85t-53 -83.5t-50 -34.5zM797 741q-34 0 -58.5 -24t-24.5 -58.5t24.5 -58.5t58.5 -24t58 24t24 58.5t-24 58.5t-58 24zM797 609
q-20 0 -34.5 14.5t-14.5 35t14.5 35t34.5 14.5t34.5 -14.5t14.5 -35t-14.5 -35t-34.5 -14.5zM697 182q-33 18 -42.5 30t-1.5 36q9 25 21 45t22.5 31t22 18.5t16 9.5t7.5 2l-8 33q-4 -1 -9.5 -3t-20.5 -11.5t-28.5 -22t-28.5 -37t-25 -54.5q-5 -15 -6 -28t4 -23.5t10 -18
t15.5 -15t17 -11.5t18.5 -11q19 -10 28.5 -16.5t22 -18.5t18 -28t5.5 -37q0 -19 -15 -31q-28 -22 -102 -21.5t-136 11.5t-112 24l-8 -33q141 -37 252 -37q89 0 126 29q29 22 29 58q0 28 -8 50t-24.5 37.5t-28 23t-31.5 19.5z" />
    <glyph glyph-name="uniE62F" unicode="&#xe62f;" 
d="M856 463h-240v-34h240v34zM856 258h-240v-35h240v35zM787 360h-171v-34h171v34zM582 728v103h-137v-103h-377v-754h891v754h-377zM479 797h68v-171h-68v171zM102 694h343v-68h-343v68zM924 9h-822v582h343h137h342v-582zM924 626h-342v68h342v-68zM633 134
q-57 24 -137 47q-4 2 -4 16t10 35q10 23 13 47q14 16 21 49q5 27 -1 42l-1 2q-3 15 5 58q2 15 -3 36.5t-19 40.5q-30 38 -88 42h-26q-57 -4 -87 -42q-14 -19 -19.5 -40.5t-2.5 -36.5q8 -43 4 -58v-2q-6 -15 -1 -42q7 -33 20 -49q4 -25 14 -47q6 -12 6 -35q0 -15 -4 -16
q-80 -24 -137 -49q-25 -10 -25 -38v-17h39v17q0 1 1 2h1q55 24 133 47q31 10 31 54q0 32 -9 52q-8 17 -11 35l-1 12l-8 9q-7 8 -12 31q-3 15 -1 19q2 5 3 9q5 23 -4 73q-2 7 1.5 20.5t12.5 25.5q19 24 57 27h24q39 -3 58 -27q9 -12 12 -25.5t2 -20.5q-9 -50 -4 -73v-1l1 -2
q0 -2 2 -6q1 -4 -2 -19q-4 -23 -11 -31l-8 -9l-2 -12q-2 -18 -10 -35q-14 -29 -14 -52q0 -43 33 -53q78 -23 132 -46q5 -2 6 -5v-16h40v17q0 11 -8 22.5t-22 17.5z" />
    <glyph glyph-name="uniE630" unicode="&#xe630;" 
d="M829 756h-635q-53 0 -90.5 -37.5t-37.5 -90.5v-471q0 -53 37.5 -90.5t90.5 -37.5h635q53 0 90.5 37.5t37.5 90.5v471q0 53 -37.5 90.5t-90.5 37.5zM909 139q0 -27 -19 -45.5t-45 -18.5h-669q-27 0 -45.5 18.5t-18.5 45.5v507q0 26 18.5 45t45.5 19h669q26 0 45 -19
t19 -45v-507zM784 412h-317q-13 0 -22.5 -9t-9.5 -22.5t9.5 -23t22.5 -9.5h317q13 0 22.5 9.5t9.5 23t-9.5 22.5t-22.5 9zM336 620h-90q-27 0 -45.5 -19t-18.5 -45v-66q0 -26 18.5 -44.5t45.5 -18.5h90q27 0 45.5 18.5t18.5 44.5v66q0 26 -18.5 45t-45.5 19zM348 507
q0 -13 -9.5 -22.5t-22.5 -9.5h-54q-13 0 -22.5 9.5t-9.5 22.5v28q0 14 9.5 23t22.5 9h54q13 0 22.5 -9t9.5 -23v-28zM784 243h-317q-13 0 -22.5 -9.5t-9.5 -23t9.5 -22.5t22.5 -9h317q13 0 22.5 9t9.5 22.5t-9.5 23t-22.5 9.5zM471 532h309q13 0 22.5 9.5t9.5 22.5
t-9.5 22.5t-22.5 9.5h-309q-14 0 -23 -9.5t-9 -22.5t9 -22.5t23 -9.5zM336 357h-90q-27 0 -45.5 -18.5t-18.5 -45.5v-65q0 -27 18.5 -45.5t45.5 -18.5h90q27 0 45.5 18.5t18.5 45.5v65q0 27 -18.5 45.5t-45.5 18.5zM348 244q0 -13 -9.5 -22.5t-22.5 -9.5h-54
q-13 0 -22.5 9.5t-9.5 22.5v29q0 13 9.5 22.5t22.5 9.5h54q13 0 22.5 -9.5t9.5 -22.5v-29z" />
    <glyph glyph-name="uniE631" unicode="&#xe631;" 
d="M829 752h-636q-53 0 -90.5 -37.5t-37.5 -90.5v-471q0 -53 37.5 -90.5t90.5 -37.5h636q53 0 90.5 37.5t37.5 90.5v471q0 53 -37.5 90.5t-90.5 37.5zM910 135q0 -27 -18.5 -45.5t-44.5 -18.5h-669q-27 0 -45.5 18.5t-18.5 45.5v506q0 27 18.5 45.5t45.5 18.5h669
q26 0 44.5 -18.5t18.5 -45.5v-506zM640 650l-76 -141q-30 -57 -37 -75h-1q-20 45 -114 216h-71l133 -229h-109v-50h128v-70h-128v-51h128v-101h63v101h123v51h-123v70h123v50h-105l134 229h-68z" />
    <glyph glyph-name="uniE632" unicode="&#xe632;" 
d="M831 23h-637q-53 0 -90.5 37.5t-37.5 90.5v472q0 53 37.5 90.5t90.5 37.5h637q53 0 90.5 -37.5t37.5 -90.5v-472q0 -53 -37.5 -90.5t-90.5 -37.5zM849 69l7 1q-7 7 -7 16v0q-9 70 -61 118t-123 50h-3h-4h-3h-3q-71 -2 -123 -50t-60 -118h-1q0 -10 -7 -17h388zM778 421.5
q0 49.5 -35 84.5t-84.5 35t-84.5 -35t-35 -84.5t35 -85t84.5 -35.5t84.5 35.5t35 85zM913 641q0 26 -19 45t-45 19h-671q-26 0 -45 -19t-19 -45v-508q0 -26 19 -45t45 -19h249q-7 7 -7 17v2q0 5 3 11q9 62 47 111t94 73q-34 23 -53.5 59.5t-19.5 78.5q0 70 49 119t118.5 49
t118.5 -49t49 -119q0 -42 -19.5 -78.5t-53.5 -59.5q57 -24 94.5 -73.5t47.5 -111.5q1 -2 1 -7q17 18 17 42v508zM416 279h-176q-13 0 -22.5 9.5t-9.5 22.5t9.5 22.5t22.5 9.5h176q13 0 22.5 -9.5t9.5 -22.5t-9.5 -22.5t-22.5 -9.5zM416 397h-176q-13 0 -22.5 9.5t-9.5 22.5
t9.5 22.5t22.5 9.5h176q13 0 22.5 -9.5t9.5 -22.5t-9.5 -22.5t-22.5 -9.5z" />
    <glyph glyph-name="uniE633" unicode="&#xe633;" 
d="M428 495v115l-263 -209l263 -209v122q164 13 289 -58q27 -15 62 -45.5t51 -47.5q6 -6 12 -6h7l4 6q1 3 1 8t-11 25t-34 60q-130 215 -381 239zM690 310q-90 50 -224 50q-61 0 -71 -1l-10 -1v-75l-145 117l145 124v-77l16 -1q60 -5 105 -14.5t91 -27.5t82 -49t63 -75
q4 -7 10 -16q-37 31 -62 46zM829 754h-637q-53 0 -90.5 -37.5t-37.5 -90.5v-472q0 -53 37.5 -90.5t90.5 -37.5h637q53 0 90.5 37.5t37.5 90.5v472q0 53 -37.5 90.5t-90.5 37.5zM910 137q0 -27 -18.5 -45.5t-45.5 -18.5h-669q-27 0 -45.5 18.5t-18.5 45.5v507q0 26 18.5 45
t45.5 19h669q27 0 45.5 -19t18.5 -45v-507z" />
    <glyph glyph-name="uniE634" unicode="&#xe634;" 
d="M499.5 475q-38.5 0 -66 -27.5t-27.5 -66.5t27.5 -66.5t66 -27.5t66.5 27.5t28 66.5t-28 66.5t-66.5 27.5zM499.5 334q-19.5 0 -33 14t-13.5 33.5t13.5 33t33 13.5t33.5 -13.5t14 -33t-14 -33.5t-33.5 -14zM827 757h-316h-11h-12h-296q-53 0 -90.5 -37.5t-37.5 -90.5v-471
q0 -53 37.5 -90.5t90.5 -37.5h635q53 0 90.5 37.5t37.5 90.5v471q0 53 -37.5 90.5t-90.5 37.5zM176 76q-26 0 -45 19t-19 45v507q0 26 19 44.5t45 18.5h209q-43 -42 -49 -101q-24 7 -48 7q-68 0 -116 -48t-48 -116q0 -60 38 -106t96 -56q-17 -35 -17 -73q0 -44 21.5 -81.5
t57.5 -59.5h-144zM491 76q18 11 32 25q14 -14 32 -25h-64zM641 99q-30 0 -56 14t-42 39q-7 10 -19.5 10t-19.5 -10q-17 -25 -43 -39t-55 -14q-49 0 -83.5 34.5t-34.5 83.5q0 45 31 78q11 12 3.5 26.5t-23.5 13.5q-6 -1 -11 -1q-48 0 -82.5 34.5t-34.5 83t34.5 83t82.5 34.5
q32 0 60 -17q13 -7 25.5 1t9.5 23q-1 9 -1 17q0 48 34.5 82.5t83 34.5t83 -34.5t34.5 -82.5q0 -18 -5 -35q-6 -18 10 -27.5t29 3.5q34 35 84 35q48 0 82.5 -34.5t34.5 -82.5q0 -46 -31.5 -80t-77.5 -37q-14 -2 -19.5 -15.5t4.5 -24.5q30 -33 30 -78q0 -49 -34.5 -83.5
t-82.5 -34.5zM909 140q0 -26 -19 -45t-45 -19h-119q36 22 57.5 59.5t21.5 81.5q0 41 -20 78q50 16 82 59.5t32 97.5q0 68 -48 116t-116 48q-38 0 -71 -16q-3 65 -50 110h231q26 0 45 -18.5t19 -44.5v-507z" />
    <glyph glyph-name="uniE635" unicode="&#xe635;" 
d="M112 773l378 -359q16 -15 34 -10q16 -1 28 11l379 358q11 10 12.5 24t-7.5 23l-19 20q-9 10 -22.5 9t-24.5 -11l-349 -330l-347 330q-11 10 -25 11t-23 -9l-19 -20q-9 -9 -7.5 -23t12.5 -24zM917 365q-9 9 -22.5 8.5t-24.5 -10.5l-349 -331l-347 330q-11 11 -25 11.5
t-23 -8.5l-19 -20q-9 -9 -7.5 -23t12.5 -24l378 -359q16 -15 34 -10q16 -1 28 11l379 358q11 10 12.5 24t-7.5 23z" />
    <glyph glyph-name="uniE636" unicode="&#xe636;" 
d="M112 3l378 359q16 16 34 11q16 0 28 -11l379 -359q11 -10 12.5 -24t-7.5 -23l-19 -20q-9 -9 -22.5 -8.5t-24.5 11.5l-349 330l-347 -330q-11 -11 -25 -11.5t-23 8.5l-19 20q-9 9 -7.5 23t12.5 24zM917 411q-9 -9 -22.5 -8t-24.5 11l-349 330l-347 -330q-11 -10 -25 -11
t-23 8l-19 20q-9 9 -7.5 23t12.5 24l378 360q16 15 34 10q16 0 28 -11l379 -358q11 -11 12.5 -25t-7.5 -23z" />
    <glyph glyph-name="uniE637" unicode="&#xe637;" horiz-adv-x="1032" 
d="M511 896q-104 0 -198.5 -40.5t-163 -109t-109 -163t-40.5 -198.5t40.5 -198.5t109 -163t163 -109t198.5 -40.5t198.5 40.5t163 109t109 163t40.5 198.5t-40.5 198.5t-109 163t-163 109t-198.5 40.5zM730 232q14 -14 14 -33t-14 -33t-33 -14t-33 14l-153 153l-153 -153
q-14 -14 -33 -14t-33 14t-14 33t14 33l153 153l-153 153q-14 14 -14 33t14 33t33 14t33 -14l153 -153l153 153q14 14 33 14t33 -14t14 -33t-14 -33l-153 -153z" />
    <glyph glyph-name="uniE638" unicode="&#xe638;" 
d="M512.5 832q-91.5 0 -174 -35.5t-142.5 -95.5t-95.5 -143t-35.5 -174t35.5 -174t95.5 -142.5t142.5 -95t174 -35.5t174 35.5t142.5 95t95.5 142.5t35.5 174t-35.5 174t-95.5 143t-142.5 95.5t-174 35.5zM513 -2q-105 0 -194.5 51.5t-141 140.5t-51.5 194t51.5 194t141 141
t194.5 52t194 -52t140.5 -141t51.5 -194t-51.5 -194t-140.5 -140.5t-194 -51.5zM789 396q-7 7 -7 18q0 5 -4.5 13t-9.5 14l-4 6q-20 -3 -20 13t-13 22q-4 3 -5 -1q-3 -6 -9.5 -8t-10.5 6q-6 17 -26 19q-16 2 -18 -18l3 -30l-10 -17l-4 -25q-15 19 -16 27q-2 8 -24 14
q-1 0 -6 1t-9.5 2t-10 2.5t-8.5 4t-2 5.5q0 2 0.5 9.5t1 11.5t3 9t6.5 8q3 1 10 4.5t10.5 5.5t5.5 5q3 4 24 20q2 3 1 8t-0.5 10t5.5 4q3 0 7.5 -0.5t7 -0.5t5 -1t3.5 -4q1 -4 10 -15t11 -15q14 -25 23 -21l23 12l-2 2t-4.5 5.5t-1.5 5.5t5 2q6 0 10.5 1t6.5 3l1 1
q-21 9 -26 14q-1 1 -10 9t-14 14q-4 4 -9 6t-13 4t-13 3q-5 2 -13.5 2.5t-15 0t-13.5 -1t-8 -0.5q-2 0 -5.5 -2.5t-5.5 -5.5l-2 -2l-4 -20q-2 11 -11 17q-2 2 -9 5.5t-9.5 6t-0.5 6.5q5 9 39 9t40 4q0 1 8.5 8t16 13t18 12.5t17.5 8.5q10 3 20.5 7t16.5 7l6 3q-67 2 -87 4
q-15 0 -36 -2t-29 -4l-13 -6q-9 -5 -12 -5l-17 -9q-28 3 -32 -2l-8 -17q-6 5 -11 9q-15 10 -23 2q-12 -12 -30 -10q-7 2 -12.5 -0.5t-7.5 -4.5l-3 -3l10 -15q-24 -6 -24 -11q0 -2 2.5 -6.5t4.5 -7.5l3 -3q2 1 6 2t13 2.5t11 -2.5q2 -2 10 -7t14 -8l7 -4l20 -11q-26 3 -37 6
q-3 2 -9 4.5t-11.5 4.5t-14.5 2q-6 1 -21.5 3t-22 2.5t-16.5 -1.5q-31 -14 -33 -9q-2 6 -17.5 10.5t-28.5 4.5q-3 0 -15 0.5t-20 0.5t-18 -1.5t-15 -4.5q-6 -4 -12.5 -10.5t-9.5 -12.5l-3 -5l8 -4l-16 -10l14 -20q4 -16 4 -23q0 -3 5 -5.5t10 -3.5l5 -1l11 -6q-4 -2 -9 -6
t-16 -12t-17 -13.5t-4 -5.5q5 0 19.5 7t23.5 14q7 5 17 15t12 11q17 14 43 11q5 -1 12.5 -1t11 -0.5t8.5 -3t10 -7.5t13.5 -12t13.5 -12t8 -11q2 -5 16 -19.5t15 -22.5q0 -2 -2.5 -32t2.5 -36q3 -8 8.5 -17t12.5 -18.5t8 -9.5q19 -30 21 -39q1 -3 1 -10.5t1.5 -12.5t5.5 -9
l20 -17q1 -1 -10 41q17 -31 23 -35q3 -2 6 -20.5t7 -21.5q2 -1 7.5 -6t12.5 -10t16 -9q23 -9 36 -19q1 -1 8 -4.5t12 -7.5q4 -4 6 -12t5 -12q0 -1 2 -2q10 -12 25 -12q13 0 15 4q-1 3 -6 4q-20 0 -22 16q-1 14 -4 25.5t-9 11.5t-11 6.5t-4 12.5q3 23 -3 28q-1 1 -2 1
q-3 -1 -10 -14t-12 -14q-6 -1 -15.5 12.5t-9.5 22.5q0 34 7 43q2 2 4.5 6t4.5 5l4 3q3 2 7 2.5t11 1.5q4 0 9.5 1t8.5 1t6.5 0.5t5 0t3.5 -1.5t3 -2.5t1 -4.5q2 -6 5 -12.5t6 -10.5l3 -3q0 33 3 45q2 5 10 16t8 16v5v5q0 1 1 3.5t2.5 4.5t5.5 4q8 5 16 23q1 2 2.5 7t3 8.5
t5.5 4.5q2 1 9.5 3.5t9 2.5t5.5 -1q2 -4 9.5 -3t9.5 5q1 3 -4.5 10.5t-6.5 11.5q-2 6 0 13t11 5q8 -2 16 -11t13 -9q7 0 12 7t1 10z" />
    <glyph glyph-name="uniE639" unicode="&#xe639;" 
d="M512 830q-91 0 -174 -35.5t-142.5 -95.5t-95 -142.5t-35.5 -173.5t35.5 -174t95 -142.5t142.5 -95t174 -35.5t173.5 35.5t142.5 95t95.5 142.5t35.5 174t-35.5 173.5t-95.5 142.5t-142.5 95.5t-173.5 35.5zM512 -3q-105 0 -194 51.5t-140.5 140.5t-51.5 194t51.5 194
t140.5 140.5t194 51.5t194 -51.5t140.5 -140.5t51.5 -194t-51.5 -194t-140.5 -140.5t-194 -51.5zM801 406l-35 44q-17 22 -30 37q-6 7 -14 20t-12 23l-5 9q-9 33 -9 42q0 4 -7.5 10.5t-15.5 11.5l-7 4l-18 44l-13 -11l-11 -70l-11 -37l-30 20l-38 41l9 37l-17 5l-35 11
l-33 -22l-33 -35l-22 4q-15 7 -28 0q-6 -3 -13.5 -13t-12.5 -18l-5 -8h-11q-9 -20 -13 -37q-2 -8 -17.5 -18t-29.5 -16l-14 -6q-40 -13 -55 -20q-7 -2 -12 -16.5t-6 -27.5l-2 -12l5 -33q11 -42 15 -55q9 -26 7 -39q-1 -8 -0.5 -20t1.5 -24l1 -11l61 -2l37 24h33q35 22 44 31
q4 3 22 5t34 1h16l46 -31l15 -28l20 20l22 22q4 -22 4 -35q0 -11 33 -44l31 -29l41 -6q48 6 63.5 10.5t15.5 33.5q0 4 9 23.5t11 26.5q1 6 8 19t13 23l7 10q11 53 11 70q0 8 -5 18.5t-10 16.5z" />
    <glyph glyph-name="uniE63A" unicode="&#xe63a;" 
d="M639 428q-26 37 -35 48q-6 7 -11 25l-5 18l-16 40l4 19l-6 17q-2 3 -5 2l-22 -1l-30 1l-37 8l-21 -14l-20 13l-27 8l-4 22q-17 6 -28 6l-48 -4l-26 -12q-17 2 -24 -4l-22 -27q-8 -21 -16 -24q-3 -2 -11 -11t-14 -18l-7 -8q0 -45 -3 -54q-1 -4 0.5 -16t3.5 -21l3 -9
l28 -35q18 -28 24 -28q3 0 9 2t13 2h13q7 0 11 1h4q15 11 22 13q5 2 13.5 0.5t8.5 -5.5q0 -3 4.5 -6t8.5 -5l5 -2l19 -27q9 -19 9 -27q0 -3 5.5 -20.5t4.5 -20.5q-1 -2 2.5 -18.5t5.5 -29t-2 -18.5q-2 -1 -3 -3t-1 -5.5t0.5 -6t1 -7t1.5 -6.5q0 -5 6 -17.5t6 -17.5l10 -46
q1 -2 2.5 -3.5t3.5 -6t0.5 -8.5t3.5 -15t10.5 -21.5t5.5 -9.5l17 -23v-1q2 0 10 5q6 3 13 10t11 11.5t4 5.5l23 19q9 17 11 25l9 24q15 7 15 13q0 1 -0.5 7t-0.5 11t0.5 11.5t2 11t4.5 5.5q12 6 18 23q9 28 9 44q0 2 -1.5 15.5t-1.5 25t3 15.5q27 40 40 49q24 18 32 40l9 48
q-25 -2 -31 -6q-4 -2 -9.5 -1t-10.5 3zM512 830q-91 0 -174 -35.5t-142.5 -95t-95 -142.5t-35.5 -174t35.5 -174t95 -142.5t142.5 -95t174 -35.5t173.5 35.5t142.5 95t95.5 142.5t35.5 174t-35.5 174t-95.5 142.5t-142.5 95t-173.5 35.5zM512 -3q-105 0 -194 51.5
t-140.5 140.5t-51.5 194t51.5 194t140.5 140.5t194 51.5t194 -51.5t140.5 -140.5t51.5 -194t-51.5 -194t-140.5 -140.5t-194 -51.5zM647 185q3 -18 3 -26q0 -3 -3 -8.5t-6 -8.5l-2 -4q6 -25 12 -32q23 24 24 31q1 2 1 8.5t1.5 12.5t4.5 9t4.5 15.5t1.5 24.5v11l-24 -16z" />
    <glyph glyph-name="uniE63B" unicode="&#xe63b;" 
d="M512.5 831q-91.5 0 -174 -35.5t-142.5 -95t-95.5 -142.5t-35.5 -174t35.5 -174t95.5 -143t142.5 -95.5t174 -35.5t174 35.5t142.5 95.5t95.5 143t35.5 174t-35.5 174t-95.5 142.5t-142.5 95t-174 35.5zM762 88v3q1 7 5.5 16t4.5 10q1 4 5 5t10.5 1t9.5 1q2 1 3 2
q-18 -20 -38 -38zM806 132q1 2 2 10q1 4 0.5 8t-1.5 6l-1 2q2 15 12 21q3 2 5.5 6.5t3 8.5t1 12t0.5 10q1 16 -7 38q-6 14 -6 22t-22 42q-8 11 -49 32q-7 4 16 15q18 3 18 13q0 14 -11 36q-5 8 -5 44q0 8 -5 10.5t-17 3.5t-21 6q-16 8 -29 8l-25 2l-13 22l-12 1
q-22 -3 -33 2q-6 2 -21.5 7t-23.5 8q-19 7 -49 7q-11 0 -21.5 -2t-17.5 -2q-19 -2 -29 -6q-5 -2 -13.5 -15t-11.5 -20q-1 -3 -8.5 -13.5t-8.5 -13.5q0 -3 -0.5 -15.5t-1.5 -16.5q-2 -4 -2 -9t1 -11t1 -8q0 -7 11 -16q2 -2 3 -5t0 -10t-1 -8q0 -4 -2 -10.5t-4 -11.5l-2 -5
l-7 -22h-22l-13 -11l-16 -7l-18 -6q-7 10 -7 16l5 15l17 14l-17 15q-18 7 -22 14q-2 3 -8 8t-11 8l-5 4q-15 5 -15 11q0 5 -14 -4l-10 2l-30 -1q-10 11 -10 19q0 4 -2 8t-4 6l-2 2l4 11q-14 7 -16 15l-4 22q-4 -15 -4 -41q0 -4 -2 -7t-2.5 -4t1.5 -3q3 -2 6 -6.5t6.5 -9.5
t5.5 -7.5t3.5 -8t4 -8.5t8.5 -2q4 1 7 0t5 -4.5t2.5 -5t1.5 -7.5q2 -7 14 -13t21 -6q17 0 -1 -15q-6 -7 -4 -11t8 -5q7 -1 -8 -26q-2 -5 -2 -12t2 -15l1 -7q-1 -14 -11 -14q-7 0 -5 -5q2 -4 2 -6q1 -5 10 -11t14 -4q1 0 5.5 5t12.5 3q5 -1 6.5 -6t0.5 -10l-2 -5l-2 -11
l9 -14q-2 -13 -2 -19q0 -3 2.5 -6t5.5 -6l3 -2q15 -11 23 -18q8 -6 24 -14.5t25 -9.5q6 0 11.5 2.5t11.5 8.5l6 6q3 2 12.5 -6t12.5 -8q6 0 6 24q0 4 -1.5 10.5t-2.5 10.5l-2 4q13 8 20 11t4 22q-1 5 1.5 11t4.5 10l2 4q20 -14 25 -18q18 -13 30 -28q9 -11 19 -16
q4 -3 3.5 -9.5t-2.5 -12.5l-2 -6q0 -11 11 -14q5 -1 6.5 -7t1 -13.5t0.5 -10.5q2 -6 -11 -33l-11 -21q22 -14 31 -14q2 0 5 -0.5t7.5 -1t7.5 -1.5q-34 -6 -68 -6q-105 0 -194.5 52t-141 141t-51.5 194t51.5 194t141 140.5t194.5 51.5t194 -51.5t140.5 -140.5t51.5 -194
q0 -143 -93 -252z" />
    <glyph glyph-name="uniE63C" unicode="&#xe63c;" 
d="M513 831q-91 0 -173.5 -35.5t-142.5 -95.5t-95.5 -142.5t-35.5 -173.5t35.5 -174t95.5 -142.5t142.5 -95t173.5 -35.5t174 35.5t142.5 95t95 142.5t35.5 174t-35.5 173.5t-95 142.5t-142.5 95.5t-174 35.5zM513 -2q-105 0 -194 51.5t-140.5 140.5t-51.5 194t51.5 194
t140.5 140.5t194 51.5t194 -51.5t140.5 -140.5t51.5 -194t-51.5 -194t-140.5 -140.5t-194 -51.5zM718 527q-5 12 -27 10q-7 -1 -20 6.5t-19 8.5q-28 7 -41 22q-3 4 -6 16t-7 17q-6 8 -22 14t-28 6q-7 0 -11.5 4t-10 12.5t-9.5 12.5q-6 6 -12 8t-16 1.5t-14 -0.5
q-6 0 -22 3.5t-22 2.5q-33 -7 -40 -15q-3 -3 -6 -19t-4 -30l-2 -14q-6 -5 -16 -9q-4 -2 -6 -6t-2 -7v-9v-8q0 -13 -6 -27q0 -6 -0.5 -6.5t1.5 -6.5l3 -6q1 -3 12.5 -23t13.5 -26q5 -10 23.5 -27t26.5 -18q7 -1 6 -7t0 -10q4 -5 3.5 -25.5t-3.5 -28.5q-9 -25 -9 -52
q0 -17 -13 -61q-7 -23 -5 -41q1 -8 -8 -36q-1 -5 -0.5 -9t2.5 -11.5t2 -9.5q1 -6 10 -20.5t17 -19.5q13 -10 42 -10q6 0 -9 19q-8 11 -9 16t0.5 8.5t7 8t6.5 6.5q11 13 0 13q-4 0 -5 4t-1 8l1 4q9 5 19 11q5 3 5.5 8.5t-1.5 10.5l-3 4q11 6 18 13l4 5l4 3q1 1 3.5 2t6.5 2
q27 5 30 22q2 8 4.5 9.5t12.5 1.5q15 0 25 21q2 4 14 16.5t16 16.5q9 13 7 34q-1 14 25 14q15 0 41 19q3 3 5 8t2.5 9t1 12.5t0.5 10.5q1 7 6.5 18t5.5 16q2 13 29 36q3 6 3 9.5t-3 11.5t-4 11q0 5 -11 6.5t-12 5.5z" />
    <glyph glyph-name="uniE63D" unicode="&#xe63d;" 
d="M445 283l14 4v20l-10 1zM292 476q2 6 2.5 20t-2.5 18q-1 0 -3.5 2.5t-3.5 3t-5.5 1.5t-9.5 -1q-20 -5 -20 -22l-5 -31q1 -1 3 -1.5t7.5 -2t10.5 1.5q4 2 11 3t10.5 2.5t4.5 5.5zM304 468l13 -8l-11 -15q22 3 28 4q3 1 17.5 3.5t17.5 2.5q4 1 1 25q-1 9 -30 37
q-7 7 -10.5 12.5t-3.5 8.5l-1 2l8 11l-24 11l-17 -25q0 -3 2.5 -10.5t6 -14t8 -14.5t5.5 -9q1 -3 -1.5 -8.5t-5.5 -8.5zM611 225l10 -4l13 7l-22 4zM512 831q-91 0 -174 -35.5t-142.5 -95.5t-95 -142.5t-35.5 -173.5t35.5 -174t95 -143t142.5 -95t174 -35t173.5 35t142.5 95
t95.5 143t35.5 174t-35.5 173.5t-95.5 142.5t-142.5 95.5t-173.5 35.5zM512 -3q-105 0 -194 52t-140.5 141t-51.5 194q0 77 29 146.5t81 122.5q3 -5 19 -11q6 -2 17.5 -4.5t14.5 -0.5q25 12 31 23q3 4 8 6t8 3.5t2 3.5q-1 3 -13 7.5t-19 4.5q-4 0 -12.5 -3t-15.5 -5l-7 -3
l-13 -1q110 97 256 97q67 0 129 -22q-3 -1 -5 -1q-3 -1 -20.5 -5t-21.5 -6l-33 -7q-26 -10 -31 -12q-2 -1 -4 -6.5t-3 -10.5v-4l-21 -14q-3 -2 -8 -9t-8 -13l-3 -5q-16 -12 -24 -13l-5 -2l-6 -4l-4 -6q-3 -2 -5 -3l-1 -2q-12 -8 -23 -13q-7 -4 -5.5 -18.5t5.5 -16.5
q2 -1 3.5 -8.5t6.5 -11.5q4 -3 10.5 -1t11.5 7l5 5q3 4 13 1.5t12 -9.5q2 -3 3 -9.5t2 -10.5v-5l-6 -16l13 -2q9 2 38 14q3 1 10 17t10 17q5 2 6.5 10t-2.5 15l-10 28q16 18 19 25q1 4 23 15.5t25 13.5t6.5 -1t5 -8.5t0 -8.5t-16 -16.5t-17.5 -18.5q-5 -8 4.5 -20.5
t19.5 -8.5q8 4 31 6t25 4q22 17 25 24q2 4 0 13.5t-6 11.5q-6 3 -6 45q0 4 -1.5 8.5t-3.5 7.5l-2 3l13 10l-3 7q97 -47 156.5 -140.5t59.5 -205.5q0 -105 -51.5 -194t-140.5 -141t-194 -52zM832 286q0 5 -6.5 17t-6.5 13.5t-3 2t-7.5 0t-8.5 -1.5t-9 -2t-7 -1q-3 0 -12 1
t-15 3l-7 1q-3 2 -7 4t-11.5 6t-10.5 3q-3 0 -13.5 -11.5t-15.5 -13.5q-4 -2 -10 -3t-11 -2h-4h-9q-3 0 -5 2t-3 4l-1 1l16 6l-7 11q3 21 3 26q0 4 16 29q6 10 26 10q3 0 5.5 -4.5t2.5 -9.5l1 -4l12 -12q16 5 21 9q2 3 0.5 6t-4.5 6l-3 3q17 6 23 8.5t16 9t10 9.5
q0 25 -6 28q-1 0 -13.5 4t-17.5 8q-5 2 -11.5 3t-10.5 5l-5 8l-4.5 6t-4.5 1.5t-6.5 5t-5.5 10.5l-2 6q-10 22 -15 30q-2 5 -13 11.5t-14 10.5q-5 4 -5 13.5t-1 12.5q-3 3 -13 2.5t-21 -1.5l-10 -2q1 -2 2 -5l3 -9q2 -6 1.5 -9t-5.5 -3t-10 1l-5 2l-8 -20l-11 -28
q-20 6 -34 7q-7 1 -12 -2t-10 -8t-7 -6q-4 -3 -13 2.5t-10 5.5l-26 5l-1 25q3 13 -2.5 15.5t-20.5 -15.5q-2 -4 -0.5 -8.5t4.5 -8.5l3 -4l3 -8q-11 -12 -18 -14q-4 -1 -10.5 -6t-11.5 -10l-5 -5l-20 -12l-23 -17l-26 -14l-27 -6l20 -13q11 -16 13 -25q1 -4 1 -9t-1 -9l-1 -3
q-22 -10 -29 -11l-39 -1q-13 -24 -13 -34q0 -36 3 -50q1 -3 14 -11t20 -10q5 -2 16.5 -0.5t16.5 3.5t16 10.5t14 13.5q2 3 3 10.5t1 13.5v6q19 13 22 20l13 29l33 -8q13 7 15 13q2 2 6.5 0.5t9.5 -4.5l5 -3q19 -26 26 -29q3 -2 9 -7t10 -9l5 -4l-7 -26q-22 0 -23 -12
q-1 -5 10 -5t22 2l11 2l9 29l5 20q-20 17 -28 23q-21 15 -30 31q-4 6 7 8q11 3 13 -2t19 -20.5t22 -16.5q3 -1 25 -44q15 -31 16 -37q2 -3 6 -2.5t8 2.5l4 2l11 23q-7 15 -9 26q-1 9 21 -1q12 -8 13 -16l11 -39l26 -10l9 11l15 -15q15 -3 22 0q3 1 3 3.5t-2 4.5l-1 2l16 -1
l17 7q25 2 32 5q4 2 14 2h20l9 -1q0 23 -1 33zM453 337l-7 -1v-17h10zM560 551l-7 3l2 -15z" />
    <glyph glyph-name="uniE63E" unicode="&#xe63e;" 
d="M571 177l14 25l-12 26l-17 -17l-20 -10l16 -26l13 -3q5 1 6 5zM526 169l-21 26l-21 26h-11q18 -31 23 -38l21 -29q19 -9 30 -11l17 -1l25 -5l-31 16zM594 174l1 16l-13 -18zM308 629q9 1 19 5t16 8l6 3l-36 -1q-29 -6 -35 -14l-9 -16l16 -3q4 15 23 18zM688 181
q-5 4 -11.5 3.5t-11.5 -2.5l-5 -2l-10 12l-6 -18l22 -12l13 -17l18 -9l6 9l15 -15l4 16l-15 19zM513 831q-91 0 -173.5 -35.5t-142.5 -95t-95.5 -142.5t-35.5 -174t35.5 -173.5t95.5 -142.5t142.5 -95.5t173.5 -35.5t174 35.5t142.5 95.5t95 142.5t35.5 173.5t-35.5 174
t-95 142.5t-142.5 95t-174 35.5zM513 770q98 0 182 -45.5t137 -122.5h-36l-36 7l-38 11l-7 12l-30 3h-17l8 -20l-37 -3q-9 15 -16 15l-37 -1q-19 4 -25 10q-3 3 -13 6l-18 4l-9 1l-27 15l-33 3l-8 -5l32 -16q-18 -9 -26 -9l-27 -3l-32 -11l-36 -3l-23 -10l-28 -11l-35 5
l-30 -2l-26 -6l-27 8h-1q53 77 137 122.5t182 45.5zM513 -2q-105 0 -194 51.5t-140.5 140.5t-51.5 194q0 89 39 169l-4 -24l27 -24l19 -29l-3 -20l14 -19q-2 -1 -4.5 -1.5t-10.5 -1.5t-11 1q-5 1 -11.5 0t-12.5 -2l-6 -2l-6 -29l27 1l8 -19l21 -49q3 -6 7.5 -16.5t12 -30.5
t6.5 -25q33 12 43 24q5 5 10 13t8 14l2 5l-12 18l-29 11l-28 24l-20 16l9 14q1 1 3 2.5t6.5 3.5t7.5 -2q2 -2 4.5 -10.5t7.5 -11.5q4 -3 13 -15t14 -14q1 0 15.5 -8.5t22.5 -8.5q24 0 33 -9q1 0 7 -5.5t9 -9.5t2 -7q-1 -7 4 -25t13 -25l25 -29q-4 15 -7 24q-6 17 6 29
q18 18 21 24q4 8 15.5 10t16.5 -5l18 -24l6 -23l6 -30l20 -29l-3 20q-1 1 -2.5 3.5t-4.5 8.5t-4.5 11.5t-1.5 11t4 8.5q5 5 12 6.5t12 0.5l4 -1v-16l-6 -17l20 23l-6 24l-9 18l13 3l-6 11q3 -1 7 -2t13.5 -2t11.5 2q6 5 22 21l4 -16l6 16l-6 3l7 23l-7 32v12l-8 20
q14 6 20 -2q3 -3 6 -12t5 -16l3 -7l21 17l-8 18q9 9 17 14q3 2 10.5 9t13.5 13l6 6l12 4l11 22q-8 17 -15 18q-4 1 -8 4.5t-7 6.5l-2 3q29 11 36 14q4 1 12.5 1t15.5 -1h7l27 9l-4 -19l-3 -37l16 15l15 21l16 14l46 9l5 7q42 -82 42 -175q0 -105 -51.5 -194t-140.5 -140.5
t-194 -51.5zM586 299l6 -26l11 -16l6 -24q6 0 6 12q0 5 -4 14t-8 16l-5 6zM650 387l32 15q4 18 7 26q1 3 4.5 6t5.5 4l2 2v18q-9 1 -15 -8l-15 -28q-12 -11 -18 -14q-3 -1 -8.5 -7t-10.5 -12l-4 -5l9 -12q-4 9 11 15zM722 160l25 -1l-14 13z" />
    <glyph glyph-name="uniE63F" unicode="&#xe63f;" 
d="M957 485q-10 33 -44 38l-237 38l-113 239q-16 32 -51 32t-51 -32l-113 -239l-237 -38q-34 -5 -44 -38q-3 -8 -3 -17q0 -23 16 -40l175 -174l-50 -251q-7 -35 22 -56q15 -11 33 -11q15 0 27 7l225 125l225 -125q12 -7 27 -7q18 0 33 11q29 21 22 56l-50 251l175 174
q16 17 16 40q0 9 -3 17z" />
    <glyph glyph-name="uniE640" unicode="&#xe640;" 
d="M949 18l-221 222q-1 1 -3 2q76 99 76 223q0 100 -49.5 185t-134.5 134t-185 49t-184.5 -49t-134 -134t-49.5 -185t49.5 -185t134 -134t184.5 -49q125 0 224 75l2 -2l221 -221q12 -13 31 -11t33.5 16.5t16 33t-10.5 30.5zM105 465q0 89 44 164.5t119 119t164 43.5
t164.5 -43.5t119.5 -119t44 -164.5q0 -133 -93 -228l-3 -3q-2 -2 -3 -4q-96 -92 -229 -92q-89 0 -164 43.5t-119 119t-44 164.5z" />
    <glyph glyph-name="uniE641" unicode="&#xe641;" 
d="M769 -38.5q-24 -23.5 -57 -23.5h-407q-34 0 -57.5 23.5t-23.5 57.5v448q0 9 6 14l177 178v72q0 42 29.5 71.5t71.5 29.5t72 -29.5t30 -71.5v-83q0 -9 -6 -14.5t-14.5 -5.5t-14.5 5.5t-6 14.5v83q0 25 -17.5 43t-43 18t-43.5 -18t-18 -43v-158q0 -25 17.5 -43t42.5 -18h3
q8 -1 14 -7t5 -15q0 -7 -5 -13q-6 -5 -13 -6h-2q-42 0 -72 30t-30 72v28l-143 -142v-440q0 -17 12 -29t29 -12h407q16 0 28 12t12 29v440l-96 96q-6 6 -6 14.5t6 14.5t14.5 6t14.5 -6l102 -103q6 -6 6 -14v-448q0 -34 -24 -57.5zM372 299q0 60 42 102.5t102 42.5t102 -42.5
t42 -102.5q0 -36 -17 -67.5t-46 -51.5q50 -21 82.5 -64t40.5 -98q1 -4 1 -5v-2q0 -9 -6 -15t-14.5 -6t-14.5 6t-6 15h-1q-7 60 -52 101.5t-106 42.5h-2h-3h-3h-2q-61 -1 -106 -42.5t-52 -101.5h-1q0 -9 -6 -15t-14.5 -6t-14.5 6t-6 15v2q0 4 2 8q8 54 40.5 96t81.5 63
q-29 20 -46 51.5t-17 67.5zM516 196q43 0 73 30.5t30 73t-30 72.5t-73 30t-73 -30t-30 -72.5t30 -73t73 -30.5z" />
    <glyph glyph-name="uniE642" unicode="&#xe642;" 
d="M830 30h-637q-53 0 -90.5 37.5t-37.5 90.5v472q0 54 37.5 91.5t90.5 37.5h637q53 0 90.5 -37.5t37.5 -91.5v-472q0 -53 -37.5 -90.5t-90.5 -37.5zM912 648q0 27 -19 45.5t-45 18.5h-671q-26 0 -45 -18.5t-19 -45.5v-508q0 -26 19 -45t45 -19h671q26 0 45 19t19 45v508z
M778 405h-130q-27 0 -45.5 19t-18.5 45v85q0 27 18.5 45.5t45.5 18.5h130q26 0 45 -18.5t19 -45.5v-85q0 -26 -19 -45t-45 -19zM794 534q0 13 -9.5 22.5t-22.5 9.5h-94q-13 0 -22.5 -9.5t-9.5 -22.5v-49q0 -13 9.5 -22.5t22.5 -9.5h94q13 0 22.5 9.5t9.5 22.5v49zM556 200
h-317q-13 0 -22.5 9.5t-9.5 22.5t9.5 22.5t22.5 9.5h317q14 0 23 -9.5t9 -22.5t-9 -22.5t-23 -9.5zM556 318h-317q-13 0 -22.5 9.5t-9.5 22.5t9.5 22.5t22.5 9.5h317q14 0 23 -9.5t9 -22.5t-9 -22.5t-23 -9.5z" />
    <glyph glyph-name="uniE643" unicode="&#xe643;" 
d="M648 -61h-279q-50 0 -82.5 25.5t-32.5 71.5v691q0 46 33 74.5t82 28.5h279q49 0 82 -28.5t33 -74.5v-691q0 -46 -32.5 -71.5t-82.5 -25.5zM721 727q0 23 -23 40t-48 17h-281q-25 0 -48.5 -17t-23.5 -40v-472h424v472zM721 214h-424v-178q0 -23 24.5 -40t49.5 -17h277
q25 0 49 17t24 40v178zM511 36q-24 0 -40.5 17t-16.5 41t16.5 40.5t40.5 16.5t41 -16.5t17 -40.5t-17 -41t-41 -17z" />
    <glyph glyph-name="uniE644" unicode="&#xe644;" 
d="M947 642l-436 -436q-1 -2 -9 -9q-9 -9 -27 -9q-16 0 -27 11q-4 4 -6 7l-149 147q-11 12 -11 28t11.5 27.5t27.5 11.5t27 -12l128 -128l417 416q11 12 27.5 12t27.5 -11.5t10.5 -27t-11.5 -27.5zM764 695v-2q-3 -9 -12 -13.5t-18 -1.5l-2 -2q-56 47 -124 69
q-74 25 -149 16.5t-139 -40.5t-114 -90t-73 -131q-26 -74 -17 -149t40.5 -139t89.5 -114t131 -73q74 -26 149 -17t139.5 40.5t114 89.5t73.5 131q27 85 13 174l1 13q6 20 29 15q7 -1 11.5 -6t5.5 -10q17 -101 -15 -200q-26 -82 -82 -147.5t-128.5 -101.5t-157 -45.5
t-168.5 18.5q-82 27 -147.5 83t-101.5 128.5t-45.5 157t18.5 167.5q27 83 83 148t128 101t157 46t168 -19q69 -22 129 -68q5 -2 8 -6q1 -1 2.5 -3.5t3 -8t-0.5 -10.5z" />
    <glyph glyph-name="uniE645" unicode="&#xe645;" 
d="M345 516h333v44h-333v-44zM700 832h-377q-46 0 -78.5 -32.5t-32.5 -78.5v-782l300 200l299 -200v782q0 46 -32.5 78.5t-78.5 32.5zM761 34l-249 168l-250 -168v671q0 71 94 71h311q94 0 94 -71v-671zM345 339h333v44h-333v-44z" />
    <glyph glyph-name="uniE646" unicode="&#xe646;" 
d="M888 598q-10 9 -23 8.5t-22 -10.5l-427 -454l-233 230q-10 9 -23 9t-22.5 -9.5t-9.5 -23t10 -22.5l256 -253h1q1 -1 7 -4q0 -1 1 -1.5t2 -1.5q6 -2 12 -2t12 3q1 0 2 1t2 1q5 3 7 5v0l449 479q9 9 9 22.5t-10 22.5z" />
    <glyph glyph-name="uniE647" unicode="&#xe647;" 
d="M557 383l266 264q9 9 9 22t-9.5 22.5t-22.5 9.5t-23 -9l-265 -264l-263 264q-9 9 -22.5 9t-23 -9t-9.5 -22.5t10 -22.5l263 -264l-265 -264q-10 -9 -10 -22.5t9.5 -22.5t22.5 -9t23 9l265 264l265 -267q10 -9 23 -9t22.5 9.5t9.5 22.5t-9 23z" />
    <glyph glyph-name="uniE648" unicode="&#xe648;" 
d="M804 343q-1 -120 -86.5 -205t-205.5 -85q-121 0 -206.5 85.5t-85.5 206.5q0 117 82.5 202.5t199.5 89.5v-30q0 -18 10.5 -25.5t25.5 1.5l168 94q15 9 15 20.5t-15 20.5l-169 93q-15 8 -25.5 1t-10.5 -25v-33q-108 -3 -199.5 -58.5t-145 -148.5t-53.5 -202q0 -111 55 -205
t149 -149t205 -55t205 54.5t148.5 148t55.5 204.5h-117z" />
    <glyph glyph-name="uniE649" unicode="&#xe649;" 
d="M945 670l-70 -70q-6 -6 -15 -6t-15 6l-118 118q-6 6 -6 15t6 15l70 70q14 14 33.5 14t33.5 -14l81 -81q13 -14 13 -33.5t-13 -33.5zM820 551l-504 -504q-6 -10 -15 -11t-15 5l-118 118q-6 6 -6 15t6 15l504 504q6 6 15 6t15 -6l118 -118q6 -6 6 -14t-6 -10zM251 -8
l-168 -57l-3 -1q-9 -2 -15 4t-4 15l1 3l57 167l1 4q1 2 4 4q11 11 22 0l112 -112q11 -11 0 -22q-2 -3 -4 -4z" />
    <glyph glyph-name="uniE64A" unicode="&#xe64a;" 
d="M896 448q27 0 45.5 -18.5t18.5 -45.5t-18.5 -45.5t-45.5 -18.5h-768q-27 0 -45.5 18.5t-18.5 45.5t18.5 45.5t45.5 18.5h768z" />
    <glyph glyph-name="uniE64B" unicode="&#xe64b;" 
d="M896 448h-320v320v0q0 27 -19 45.5t-45 18.5t-45 -18.5t-19 -45.5v-1v-319h-320v0q-27 0 -45.5 -18.5t-18.5 -45t18.5 -45.5t45.5 -19h1h319v-319v-1q0 -26 19 -45t45 -19t45 19t19 45v320h319h1q27 0 45.5 19t18.5 45.5t-18.5 45t-45.5 18.5z" />
    <glyph glyph-name="uniE64C" unicode="&#xe64c;" 
d="M989 382v-1h-1v-1v-1v-1q-2 -11 -10 -20q-11 -13 -32 -34q-95 -97 -201 -153q-79 -41 -151 -54q-88 -16 -173 2q-133 29 -269 140q-65 53 -103 99q-21 26 0 52q11 14 32 34q95 98 201 153q79 41 151 54q88 16 173 -2q133 -29 269 -140q65 -52 103 -99q8 -9 10 -20v-2
q0 -1 1 -1v-1v-2v-2zM514 570q-74 0 -126 -52.5t-52 -126t52 -126t126 -52.5t126 52.5t52 126t-52 126t-126 52.5zM514 302q-37 0 -63 26.5t-26 63t26 63t63 26.5t63 -26.5t26 -63t-26 -63t-63 -26.5z" />
    <glyph glyph-name="uniE64D" unicode="&#xe64d;" 
d="M959 505l-300 58l-148 270l-147 -270l-300 -58l208 -225l-37 -306l276 131l277 -131l-38 306zM363 434q-10 9 0 19l59 60q10 10 20 0t0 -20l-60 -59q-4 -5 -9.5 -5t-9.5 5zM514 172q-59 0 -99.5 28.5t-40.5 69.5t40.5 69.5t99.5 28.5t100 -28.5t41 -69.5t-41 -69.5
t-100 -28.5zM666 434q-4 -5 -9.5 -5t-10.5 5l-59 59q-10 10 0 20t20 0l59 -60q10 -10 0 -19zM514.5 340q-45.5 0 -79 -20.5t-33.5 -49.5t33.5 -49.5t79 -20.5t79 20.5t33.5 49.5t-33.5 49.5t-79 20.5zM479.5 234q-5.5 0 -9.5 9.5t-4 22.5t4 22.5t9.5 9.5t9.5 -9.5t4 -22.5
t-4 -22.5t-9.5 -9.5zM543 234q-6 0 -10 9.5t-4 22.5t4 22.5t10 9.5t10 -9.5t4 -22.5t-4 -22.5t-10 -9.5z" />
    <glyph glyph-name="uniE64E" unicode="&#xe64e;" 
d="M959 505l-299 58l-148 269l-147 -269l-300 -58l209 -225l-38 -305l276 130l277 -130l-38 305zM636.5 524q14.5 0 24 -10t9.5 -24t-9.5 -24t-24 -10t-24.5 10t-10 24t10 24t24.5 10zM358 490q0 14 10 24t24 10t24 -10t10 -24t-10 -24t-24 -10t-24 10t-10 24zM714 276
l-4 -3q-8 -7 -14 1l-11 13q-51 -72 -137.5 -95.5t-167.5 14.5q-13 6 -8 16q1 1 5 7q4 9 15 4q74 -34 152 -12t122 90l-13 16q-6 8 2 15l4 3q8 7 15 -2l42 -52q6 -8 -2 -15z" />
    <glyph glyph-name="uniE64F" unicode="&#xe64f;" 
d="M512 833l147 -270l300 -58l-209 -225l38 -306l-276 131l-277 -131l38 306l-209 225l300 58z" />
    <glyph glyph-name="uniE650" unicode="&#xe650;" 
d="M541.5 196q-5.5 0 -9 -9t-3.5 -22t3.5 -22t9 -9t9.5 9t4 22t-4 22t-9.5 9zM479.5 196q-5.5 0 -9.5 -9t-4 -22t4 -22t9.5 -9t9.5 9t4 22t-4 22t-9.5 9zM909 306q-1 54 -21 127.5t-48.5 140.5t-58 126t-52.5 95t-30 36q-25 4 -57 -60t-50.5 -124.5t-18.5 -65.5h-64h-76
q-1 5 -3.5 14t-9 35t-14 49.5t-18 52.5t-21 49.5t-23.5 35t-26 14.5q-7 1 -30 -34.5t-52.5 -95t-58 -127t-48 -141t-21.5 -127.5q1 -42 -1 -81.5t5.5 -76.5t20 -69.5t41.5 -59.5t71.5 -46t109 -29.5t154.5 -9.5v0q87 -1 154 9.5t109 29.5t71.5 46t42 59.5t19.5 69.5t5 76.5
t-1 81.5zM509 -23v0q-79 0 -139.5 9t-98.5 26.5t-64.5 41.5t-38 53.5t-18 63t-5 69.5t1.5 73q1 49 18 115.5t41.5 127t50 114t45.5 86t26 32.5q13 -19 29.5 -77t28.5 -107t17 -53q8 -6 106 -6q82 -2 97 6q6 4 35.5 112t45.5 125q6 0 26 -32.5t46 -86t50.5 -114t42 -127
t19.5 -115.5q-1 -37 0.5 -73t-5 -69.5t-18 -63t-37.5 -53.5t-64.5 -41.5t-98.5 -26.5t-139 -9zM579 282h-79h-65q-35 0 -59 -24.5t-24 -58.5v-25v-31q0 -35 24 -59t59 -24h62h82q35 0 59 24t24 59v29v27q0 34 -24 58.5t-59 24.5zM629 171v-21q0 -26 -18 -44t-44 -18h-68h-55
q-25 0 -43.5 18t-18.5 44v23v19q0 26 18.5 44t43.5 18h58h65q26 0 44 -18t18 -44v0v-1v0v-1v-1v-1v-1v-1v-1v-1v-1v-1v-1v-10zM580 317q-1 -7 0.5 -13t4.5 -6h6q5 0 7 14q5 26 25 36t40.5 0t24.5 -36q3 -14 8 -14h6q3 0 4.5 6t0.5 13q-7 36 -35.5 50.5t-56.5 0t-35 -50.5z
M425 312q2 -14 7 -14h6q3 0 4.5 6t0.5 13q-7 36 -35 50.5t-56.5 0t-34.5 -50.5q-2 -7 0 -13t4 -6h6q5 0 8 14q4 26 24.5 36t40.5 0t25 -36z" />
    <glyph glyph-name="uniE651" unicode="&#xe651;" 
d="M626 257q3 -3 8 -3t8 3q8 8 0 17l-57 60q-8 8 -16.5 0t0.5 -16zM480.5 129q-5.5 0 -9.5 -9.5t-4 -22t4 -21.5t9.5 -9t9 9t3.5 21.5t-3.5 22t-9 9.5zM541.5 129q-5.5 0 -9 -9.5t-3.5 -22t3.5 -21.5t9 -9t9.5 9t4 21.5t-4 22t-9.5 9.5zM579 231h-79h-65q-34 0 -58 -24
t-24 -58v-25v-31q0 -34 24 -58.5t58 -24.5h62h82q34 0 58.5 24.5t24.5 58.5v28v28q0 34 -24.5 58t-58.5 24zM629 121v-21q0 -26 -18 -44t-44 -18h-67h-55q-26 0 -44 18t-18 44v23v19q0 25 18 43t44 18h57h65q26 0 44 -18t18 -43v-21zM907 308q-1 54 -21 126.5t-48 139.5
t-57.5 126t-52.5 94.5t-29 36.5q-16 2 -35 -23t-34.5 -62t-28.5 -74.5t-21 -63.5l-7 -26l-64 -1l-76 1q-1 5 -3 14t-8.5 34.5t-14 49t-18 52t-21 49.5t-23.5 35t-26 15q-6 0 -29 -35.5t-52.5 -94.5t-57.5 -126t-48 -140t-21 -127q0 -41 -1.5 -81t5.5 -76.5t19.5 -69
t41.5 -59t71 -45.5t108.5 -29.5t153.5 -10.5v0q87 0 153.5 10.5t108.5 29.5t71 45.5t41.5 59t19.5 69t5.5 76.5t-1.5 81zM509 -20v0q-79 0 -139 9.5t-98 26.5t-64 41t-37.5 53.5t-18 62.5t-5 69t1.5 73q1 49 18 115t41.5 126.5t49.5 113.5t45 85t26 33q14 -20 30 -77
t28 -106.5t17 -52.5q8 -6 105 -6q82 -3 96 6q7 4 36 111.5t45 124.5q6 -1 26 -33t46 -85t50.5 -113.5t42 -126.5t18.5 -115q0 -37 1.5 -73t-5 -69t-18 -62.5t-37.5 -53.5t-64 -41t-98 -26.5t-139 -9.5zM384.5 254q4.5 0 8.5 3l57 61q8 8 0 16t-16 0l-57 -60q-8 -9 0 -17
q3 -3 7.5 -3z" />
    <glyph glyph-name="uniE652" unicode="&#xe652;" 
d="M480.5 180q-5.5 0 -9 -9t-3.5 -22t3.5 -22t9 -9t9.5 9t4 22t-4 22t-9.5 9zM328 361h-12q-2 0 -2 -3v-117q0 -3 2 -3h12q3 0 3 3v117q0 3 -3 3zM698 361h-12q-3 0 -3 -3v-117q0 -3 3 -3h12q3 0 3 3v117q0 3 -3 3zM910 307q-2 55 -22 128t-48 140t-57.5 126t-52.5 94.5
t-30 36.5q-16 2 -35 -23t-34.5 -62t-28.5 -74.5t-21 -63.5l-7 -27h-64h-76q-1 5 -3 14t-9 35t-14 49.5t-18 52.5t-21.5 49.5t-23.5 35t-25 14.5q-7 0 -30 -35.5t-52.5 -94.5t-58 -126.5t-48.5 -140.5t-21 -128q1 -41 -1 -80.5t5.5 -76.5t20 -69.5t41.5 -59.5t71 -46t109 -29
t154 -10v0q87 0 153.5 10t109 29t71.5 46t41.5 59.5t20 69.5t5.5 76.5t-1 80.5zM510 -21v0q-79 0 -139 9t-98.5 26.5t-64.5 41.5t-37.5 53.5t-18 63t-5 69t1.5 73.5q1 49 18 115t41.5 126.5t49.5 114t45 86t26 32.5q14 -20 30.5 -77.5t28.5 -106.5t16 -52q6 -4 32 -6t50 -1
h24q82 -2 97 7q6 3 35.5 111t45.5 125q6 0 26 -32.5t46 -86t50.5 -114t42 -126.5t18.5 -115q0 -38 1.5 -73.5t-5 -69t-18 -63t-38 -53.5t-64.5 -41.5t-98 -26.5t-139 -9zM580 266h-79h-65q-34 0 -58.5 -24.5t-24.5 -58.5v-25v-31q0 -34 24.5 -58.5t58.5 -24.5h62h82
q35 0 59 24.5t24 58.5v29v27q0 34 -24 58.5t-59 24.5zM630 156v-22q0 -26 -18 -44t-43 -18h-68h-56q-25 0 -43 18t-18 44v24v18q0 26 18 44t43 18h58h66q25 0 43 -18t18 -44v-20zM543 180q-6 0 -9.5 -9t-3.5 -22t3.5 -22t9.5 -9t9.5 9t3.5 22t-3.5 22t-9.5 9z" />
    <glyph glyph-name="uniE653" unicode="&#xe653;" horiz-adv-x="1485" 
d="M509 584h520v-520h-520v520z" />
    <glyph glyph-name="uniE654" unicode="&#xe654;" 
d="M192 64h640v-48h-640v48zM368 464v288h288v-288h176l-320 -320l-320 320h176z" />
    <glyph glyph-name="uniE655" unicode="&#xe655;" 
d="M631 388l-88 -87l-1 321q0 17 -11 27.5t-27 10.5q-17 0 -28 -11.5t-11 -28.5l1 -321l-89 90q-12 11 -28 11t-27.5 -11.5t-11.5 -28t11 -28.5l153 -154l1 -1q12 -13 29 -13t29 13l1 1l152 154q12 12 12 28.5t-11.5 28t-28 11.5t-27.5 -12zM508 833q-91 0 -174 -35.5
t-143 -95.5t-95.5 -143t-35.5 -174t35.5 -174t95.5 -142.5t143 -95t174 -35.5t174 35.5t143 95t95.5 142.5t35.5 174t-35.5 174t-95.5 143t-143 95.5t-174 35.5zM508 -9q-107 0 -198 53t-143.5 143.5t-52.5 197.5t52.5 198t143.5 144t198 53t198 -53t143.5 -144t52.5 -198
t-52.5 -197.5t-143.5 -143.5t-198 -53zM612 152h-193q-9 0 -9 -10v-26q0 -10 9 -10h193q10 0 10 10v26q0 10 -10 10z" />
    <glyph glyph-name="uniE656" unicode="&#xe656;" 
d="M225 63h5h-5zM718 63h-5h5zM835.5 387q-16.5 0 -28.5 -11.5t-12 -28.5v-209q0 -44 -15.5 -59t-61.5 -16l77 1v74v-75h-647v1l77 -1q-43 1 -58.5 13.5t-18.5 46.5v543l1 -37q0 46 12.5 62.5t52.5 18.5h541q17 0 29 12t12 28.5t-12 28.5t-29 12h-614q-31 -3 -52 -26
t-22 -54l1 -655q2 -31 25.5 -52.5t54.5 -21.5h43h561h43q33 0 57 24t24 57v41v243q0 17 -12 28.5t-28.5 11.5zM148 710h26h-26zM940.5 696.5q-16.5 16.5 -40 16.5t-39.5 -17l-455 -457q-16 -16 -16 -39.5t16.5 -40t39.5 -16.5t40 17l455 456q16 17 16 40.5t-16.5 40z" />
    <glyph glyph-name="uniE657" unicode="&#xe657;" 
d="M796 -63h-44h-481h-43q-37 0 -62.5 25.5t-25.5 61.5v47v628v47q0 35 24.5 60t59.5 27h572q35 0 60.5 -24t26.5 -59v-726q0 -36 -25.5 -61.5t-61.5 -25.5zM728 3q0 87 -62 148.5t-149 61.5t-148.5 -61.5t-62.5 -148.5q274 1 422 0zM638 421q0 50 -35.5 85.5t-85.5 35.5
t-85 -35.5t-35 -85.5t35 -85t85 -35t85.5 35t35.5 85zM818 691q-2 51 -17 64t-69 13l-3 -92q0 -18 -13 -31t-31 -13t-30.5 13t-12.5 31v93l-343 -1q-58 0 -76 -15t-18 -73v-589q0 -38 7 -56.5t25 -25.5q3 83 49.5 150.5t120.5 99.5q-40 27 -63 70t-23 92q0 82 57.5 139.5
t139 57.5t139 -57.5t57.5 -139.5q0 -49 -23 -92t-63 -70q71 -30 117.5 -94t51.5 -144q21 23 21 51v619z" />
    <glyph glyph-name="uniE658" unicode="&#xe658;" 
d="M510 -24q-15 0 -26 9q-87 59 -157 120.5t-113.5 112t-75 102t-46 87.5t-22 70.5t-8.5 49.5t0 26q1 100 72 171.5t172 71.5q63 0 116.5 -30t86.5 -81q34 51 87.5 81t116.5 30q101 0 172 -71.5t72 -171.5q1 -11 0 -26t-8.5 -49.5t-22 -70.5t-45.5 -87t-74 -101.5
t-112.5 -111.5t-156.5 -119q-11 -12 -28 -12z" />
    <glyph glyph-name="uniE659" unicode="&#xe659;" 
d="M510 -24q-15 0 -26 9q-87 59 -157 120.5t-113.5 112t-75 102t-46 87.5t-22 70.5t-8.5 49.5t0 26q1 100 72 171.5t172 71.5q63 0 116.5 -30t86.5 -81q34 51 87.5 81t116.5 30q101 0 172 -71.5t72 -171.5q1 -11 0 -26t-8.5 -49.5t-22 -70.5t-45.5 -87t-74 -101.5
t-112.5 -111.5t-156.5 -119q-11 -12 -28 -12zM306 714q-67 0 -115 -47.5t-48 -115.5v-4t0.5 -13.5t6.5 -37t18 -57.5t39 -74.5t64 -89t99 -100t139 -109.5q78 54 139.5 109.5t99 100t64.5 89t39 74.5t18 57.5t6.5 37t0.5 13.5q0 70 -47.5 118.5t-115.5 48.5
q-67 0 -114.5 -47.5t-47.5 -115.5q0 -17 -12.5 -29t-29.5 -12q-17 1 -29 12.5t-12 28.5q0 68 -47.5 115.5t-114.5 47.5z" />
    <glyph glyph-name="uniE65A" unicode="&#xe65a;" 
d="M513 831q114 0 211 -57.5t153 -157t56 -217.5q0 -127 -66 -233l-6 -8v-1q-7 -14 -7 -31q0 -2 9.5 -42.5t19.5 -80.5l10 -40q2 -9 -3 -17t-14 -11q-7 -1 -14 1l-3 2l-125 61q-2 2 -6 3q-11 5 -24 5q-12 0 -23 -4l-4 -2q-78 -34 -164 -34q-114 0 -211 58t-153.5 157.5
t-56.5 217t56.5 217t153.5 157t211 57.5z" />
    <glyph glyph-name="uniE65B" unicode="&#xe65b;" 
d="M511.5 833q-90.5 0 -173.5 -35.5t-142.5 -95t-94.5 -142t-35 -173.5t35 -173.5t94.5 -142t142.5 -95t173.5 -35.5t173 35.5t142 95t95 142t35.5 173.5t-35.5 173.5t-95 142t-142 95t-173 35.5zM511.5 25q-98.5 0 -182 48.5t-132 132t-48.5 181.5t48.5 181.5t132 132
t182 48.5t181.5 -48.5t131.5 -132t48.5 -181.5t-48.5 -181.5t-131.5 -132t-181.5 -48.5zM645 587l-129 -142h-2l-129 142h-82l152 -156h-125v-58h146v-79h-146v-59h146v-115h73v115h141v59h-141v79h141v58h-121l153 156h-77z" />
    <glyph glyph-name="uniE65C" unicode="&#xe65c;" 
d="M958 688q-1 43 -32 78t-73 40l-198 3q-10 1 -21 1q-42 0 -87 -16t-73 -41l-376 -337q-32 -29 -34.5 -72t26.5 -76l253 -282q31 -35 77 -35q40 0 70 26l376 338q32 28 54 79.5t21 94.5zM879 487q0 -29 -16.5 -67.5t-38.5 -58.5l-376 -337q-12 -10 -28 -10q-19 0 -31 13
l-253 283q-11 13 -10 30.5t14 28.5l376 337q19 17 53.5 29.5t64.5 12.5q7 0 13 -1l197 -3q20 -2 35.5 -19.5t16.5 -37.5zM685.5 676q-52.5 0 -90 -37t-37.5 -90t37.5 -90t90 -37t90 37t37.5 90t-37.5 90t-90 37zM685.5 494q-22.5 0 -39 16t-16.5 39t16.5 39t39 16t39 -16
t16.5 -39t-16.5 -39t-39 -16z" />
    <glyph glyph-name="uniE65D" unicode="&#xe65d;" 
d="M385 515l-41 -74q-16 -30 -20 -40q-11 24 -61 114h-38l71 -121h-58v-27h68v-37h-68v-27h68v-54h34v54h65v27h-65v37h65v27h-56l71 121h-35zM500 375h297v46h-297v-46zM889 694h-754q-29 0 -49 -20t-20 -48v-481q0 -28 20 -48t49 -20h754q29 0 49 20t20 48v481
q0 28 -20 48t-49 20zM891 166q0 -9 -6.5 -15.5t-16.5 -6.5h-710q-10 0 -16.5 6.5t-6.5 15.5v437q0 9 6.5 16t16.5 7h710q10 0 16.5 -7t6.5 -16v-437zM500 487h297v46h-297v-46zM500 261h297v45h-297v-45z" />
    <glyph glyph-name="uniE65E" unicode="&#xe65e;" 
d="M724 743q-37 0 -77.5 -13.5t-67.5 -28t-66 -38.5q-40 24 -66.5 38.5t-67.5 28t-77 13.5q-132 0 -237 -77v-568q127 94 237 94q21 0 46 -8t37.5 -14t45.5 -25t37 -21q1 -1 8 -4.5t10 -5.5v-9q14 -9 27 -9t26 9v9q4 2 11 6t8 4q8 5 30 17.5t34 19t31 15t36.5 12.5t34.5 4
q110 0 237 -94v568q-106 77 -237 77zM462 221q-33 24 -50 35.5t-50 25.5t-60 14q-45 0 -76 -9.5t-64 -33.5v343q37 27 67.5 39.5t72.5 12.5q67 0 160 -69v-358zM860 253q-33 25 -62.5 34t-73.5 9q-28 0 -60.5 -13.5t-51 -26t-50.5 -35.5v358q93 69 162 69q41 0 70 -12.5
t66 -39.5v-343z" />
    <glyph glyph-name="uniE65F" unicode="&#xe65f;" 
d="M948 444l-413 366v0v1q-10 9 -24 9t-23 -9q-1 -1 -1.5 -2t-1.5 -1l-410 -365h-1q-4 -4 -6 -9q0 -2 -1 -5q-1 -2 -1 -4q-1 -6 0 -11v-1q2 -10 8.5 -16.5t17.5 -8.5q5 -1 9 -1h60q24 -1 30.5 -9t7.5 -35l-1 44h-13h14l1 -369q1 -27 20 -45.5t46 -18.5h33h354h2h1h67h34
q27 0 46.5 19.5t19.5 47.5v35h1l-1 332q0 14 -9.5 23.5t-23.5 9.5t-23.5 -9.5t-9.5 -23.5v-304v-20v12v-49v1v36q-1 -25 -7 -33q-5 2 -10 2h-2h-2q-11 56 -46 100.5t-86 67.5q60 46 60 122q0 64 -45 109t-109 45t-109.5 -45t-45.5 -109q0 -76 60 -122q-53 -24 -89 -71
t-45 -106q-13 5 -15 26v301v35q0 28 -19.5 47.5t-47.5 19.5h-21l334 287l389 -343q10 -10 23.5 -10t23.5 9.5t10 23.5t-10 24zM406 323q0 43 30.5 73t73 30t72.5 -30t30 -73t-30 -73t-72.5 -30t-73 30t-30.5 73zM495 169q8 -1 15 -1t14 1q62 -5 107.5 -46.5t55.5 -102.5
h-354q11 61 56 102.5t106 46.5zM266 20h15h-15zM199 343v-24v24z" />
    <glyph glyph-name="uniE660" unicode="&#xe660;" 
d="M830 29h-638q-53 0 -90.5 37.5t-37.5 91.5v473q0 53 37.5 90.5t90.5 37.5h638q53 0 90.5 -37.5t37.5 -90.5v-473q0 -54 -37.5 -91.5t-90.5 -37.5zM563 76q-7 7 -7 16v1h-1q-8 70 -60.5 118t-123.5 50h-3h-3h-3h-4q-71 -2 -123 -50t-61 -118v-1q0 -8 -7 -16h7h389z
M485 428.5q0 49.5 -35 85t-85 35.5t-85 -35.5t-35 -85t35 -84.5t85 -35t85 35t35 84.5zM910 648q0 27 -19 46t-45 19h-672q-26 0 -45 -19t-19 -46v-508q0 -24 17 -43q0 6 1 8q10 62 47.5 111.5t94.5 73.5q-34 23 -53.5 59.5t-19.5 79.5q0 69 49 118.5t118.5 49.5t119 -49.5
t49.5 -118.5q0 -43 -20 -79.5t-53 -59.5q56 -24 93.5 -73.5t47.5 -110.5q3 -6 3 -11v-3q0 -9 -7 -16h249q26 0 45 18.5t19 45.5v508zM808 244h-177q-13 0 -22.5 9t-9.5 22.5t9.5 23t22.5 9.5h177q13 0 22.5 -9.5t9.5 -23t-9.5 -22.5t-22.5 -9zM808 362h-177q-13 0 -22.5 9.5
t-9.5 22.5t9.5 22.5t22.5 9.5h177q13 0 22.5 -9.5t9.5 -22.5t-9.5 -22.5t-22.5 -9.5zM808 485h-177q-13 0 -22.5 9.5t-9.5 22.5t9.5 22.5t22.5 9.5h177q13 0 22.5 -9.5t9.5 -22.5t-9.5 -22.5t-22.5 -9.5z" />
    <glyph glyph-name="uniE661" unicode="&#xe661;" 
d="M123 -13v794q0 29 24 43.5t52 -0.5q119 -68 686 -396q25 -15 25 -43.5t-25 -42.5q-34 -20 -346 -200.5t-342 -197.5q-24 -14 -49 -0.5t-25 43.5z" />
    <glyph glyph-name="uniE662" unicode="&#xe662;" 
d="M513 833q-96 0 -178 -47t-129.5 -128t-47.5 -176q0 -56 19 -115t46.5 -108.5t65.5 -99.5t70 -85t67.5 -68t50 -45t23.5 -20q6 -4 13 -4t13 4q9 8 23.5 20t49.5 45t67.5 68t70.5 85t65.5 99.5t46.5 108.5t19 115q0 95 -48 176t-129.5 128t-177.5 47zM513 -15
q-27 22 -56.5 50t-78.5 83t-86 108.5t-64.5 123t-27.5 132.5q0 128 92 219t221 91t221 -91t92 -219q0 -63 -27.5 -132.5t-64.5 -123t-86 -108.5t-78.5 -83t-56.5 -50zM513 624q-60 0 -103 -42.5t-43 -103t43 -103t103 -42.5q12 0 26 3q8 1 13 8t3.5 15.5t-8.5 13.5t-15 4
q-11 -2 -19 -2q-43 0 -73.5 30.5t-30.5 73.5t30.5 73.5t73.5 30.5t73.5 -30.5t30.5 -73.5q0 -8 -2 -19q-1 -8 3.5 -15.5t13 -9t16 3.5t8.5 14q3 14 3 26q0 60 -43 102.5t-103 42.5z" />
    <glyph glyph-name="uniE663" unicode="&#xe663;" 
d="M550 -64q-21 0 -36 15t-15 36q0 27 22 42q74 71 115 166t41 201q0 97 -35 185.5t-99 157.5q-6 6 -10 12q-3 2 -5 5l-3 2l-1 2q-1 2 -0.5 3t0.5 6v10q0 21 15 36t36 15l28 -4q83 -84 130 -195.5t47 -234.5q0 -127 -49 -240.5t-137 -198.5q-1 -3 -4 -6.5t-14 -9t-26 -5.5z
M473 669q102 -114 102 -273q0 -179 -113 -281q-24 -22 -45 -32q7 4 23 10l-18 -4q-21 0 -36 15t-15 36q0 5 1 10q4 3 11 8t24.5 25.5t31 46t24 70t10.5 96.5q0 50 -10 93.5t-24.5 69t-29.5 43.5t-25 25l-10 7q-3 9 -3 17q0 21 15 36t36 15q6 0 11.5 -1.5t12 -6t8.5 -6.5
l10 -10zM343 547q53 -62 53 -151q0 -86 -56 -151q-11 -11 -22.5 -18t-16.5 -8l-6 -2h-1q-21 -8 -38.5 4.5t-11.5 40.5q1 1 8 7t9.5 8.5t9.5 10t10 13.5t8 16.5t7.5 21t4.5 25.5t2 32q0 25 -6.5 47.5t-15 37t-17.5 25t-15 14.5l-6 4q1 21 15.5 35.5t35.5 14.5q8 0 22.5 -7.5
t26.5 -19.5z" />
    <glyph glyph-name="uniE664" unicode="&#xe664;" 
d="M568 389q0 14 -10 24t-24 10t-24 -10t-10 -24t10 -24t24 -10t24 10t10 24zM198 389q0 -14 10 -24t23.5 -10t23.5 10t10 24t-10 24t-23.5 10t-23.5 -10t-10 -24zM668 221q0 -14 -9.5 -24t-23.5 -10h-67q-7 0 -12 -5t-5 -11.5t5 -11.5t12 -5h67q28 0 47.5 19.5t19.5 47.5
v101h-34v-101zM349 389q0 -14 10 -24t24 -10t23.5 10t9.5 24t-9.5 24t-23.5 10t-24 -10t-10 -24zM428 182q-5 5 -12 5h-285q-14 0 -24 10t-10 24v336q0 14 10 24t24 10h344v33h-344q-28 0 -48 -19.5t-20 -47.5v-336q0 -28 20 -47.5t48 -19.5h278l147 -147q5 -5 12 -5t11.5 5
t4.5 12t-5 12zM866 633.5q0 13.5 -9.5 23t-23 9.5t-23 -9.5t-9.5 -23t9.5 -23.5t23 -10t23 10t9.5 23.5zM732.5 600q13.5 0 23 10t9.5 23.5t-9.5 23t-23 9.5t-23 -9.5t-9.5 -23t9.5 -23.5t23 -10zM629.5 666q-13.5 0 -23 -9.5t-9.5 -23t9.5 -23.5t23 -10t23 10t9.5 23.5
t-9.5 23t-23 9.5zM911 792h-362q-20 0 -34.5 -14.5t-14.5 -34.5v-222q0 -20 14.5 -34.5t34.5 -14.5h48q5 0 9 6.5t4 12t-4 11t-9 5.5h-38q-10 0 -17 7t-7 17v206q0 10 7 17t17 7h337q10 0 17 -7t7 -17v-206q0 -10 -7 -17t-17 -7h-190q-5 0 -9 -3l-109 -128q-8 -9 0 -17
q4 -4 9 -4t9 4l105 113h200q20 0 34 14.5t14 34.5v222q0 20 -14 34.5t-34 14.5z" />
    <glyph glyph-name="uniE665" unicode="&#xe665;" 
d="M831 751h-637q-53 0 -90.5 -37.5t-37.5 -90.5v-473q0 -53 37.5 -90.5t90.5 -37.5h637q53 0 90.5 37.5t37.5 90.5v473q0 53 -37.5 90.5t-90.5 37.5zM913 133q0 -27 -19 -45.5t-46 -18.5h-670q-26 0 -45 18.5t-19 45.5v507q0 27 19 45.5t45 18.5h670q27 0 46 -18.5
t19 -45.5v-507zM482 672q-79 -11 -140.5 -59t-91 -121t-19.5 -153q17 -121 113.5 -195t216.5 -58q79 11 140.5 59.5t91.5 121.5t19 152q-16 121 -113 195.5t-217 57.5zM556 123.5q-105 -14.5 -189.5 50.5t-98.5 170.5t50 191t169 100t189.5 -50.5t98.5 -171t-50 -191
t-169 -99.5zM459 447q-2 17 9 29.5t37 16.5q34 4 60 -20q4 -4 10 -4q11 2 9 13q0 4 -3 7q-26 29 -71 26l-3 27q-2 9 -11 8t-7 -10l3 -27q-31 -7 -45.5 -26t-10.5 -43q3 -23 18.5 -35.5t36 -17t40.5 -7.5t35 -12.5t18 -27.5q6 -47 -54 -55q-42 -6 -67 25q-4 5 -10 4
q-11 -1 -10 -12q0 -3 3 -6q11 -16 32 -25.5t47 -7.5l4 -27q1 -9 10 -7.5t8 10.5l-3 26q72 15 63 78q-3 24 -18.5 37.5t-36 18t-40.5 8.5t-35 12t-18 24z" />
    <glyph glyph-name="uniE666" unicode="&#xe666;" 
d="M831 751h-637q-53 0 -90.5 -37.5t-37.5 -90.5v-473q0 -53 37.5 -90.5t90.5 -37.5h637q53 0 90.5 37.5t37.5 90.5v473q0 53 -37.5 90.5t-90.5 37.5zM913 133q0 -27 -19 -45.5t-46 -18.5h-670q-26 0 -45 18.5t-19 45.5v507q0 27 19 45.5t45 18.5h670q27 0 46 -18.5
t19 -45.5v-507zM704 556q-9 -1 -15.5 -8t-6.5 -16v-2q1 -10 8 -17l-1 -1q19 -39 19 -82q0 -68 -45 -120l-4 -3l-20 -21h-1v-1l-77 -80v0l-38 -41l-39 41l-77 82q-3 2 -10 9l-10 11q-48 53 -48 123q0 76 54 130t131 54q51 0 96 -27v1q8 -10 19 -9q10 0 16.5 7t5.5 17v2
q0 10 -9 17v0q-4 3 -6 4q-57 36 -123 36q-95 0 -162.5 -67.5t-67.5 -163.5q0 -87 59 -153l2 -4l151 -158h1v-1q4 -4 8 -6q15 -6 26 5q2 2 4 6l147 154q1 1 1 2l1 1q60 66 60 154q0 54 -25 104q-1 9 -8 15t-16 6zM430 430.5q0 -38.5 27 -66t65.5 -27.5t66 27.5t27.5 66
t-27.5 65.5t-66 27t-65.5 -27t-27 -65.5zM568 430q0 -19 -13.5 -32t-32.5 -13t-32 13t-13 32t13 32.5t32 13.5t32.5 -13.5t13.5 -32.5z" />
    <glyph glyph-name="uniE667" unicode="&#xe667;" 
d="M831 751h-637q-53 0 -90.5 -37.5t-37.5 -90.5v-473q0 -53 37.5 -90.5t90.5 -37.5h637q53 0 90.5 37.5t37.5 90.5v473q0 53 -37.5 90.5t-90.5 37.5zM913 133q0 -27 -19 -45.5t-46 -18.5h-670q-26 0 -45 18.5t-19 45.5v507q0 27 19 45.5t45 18.5h670q27 0 46 -18.5
t19 -45.5v-507zM350 487h450q10 0 17 7t7 16.5t-7 16.5t-17 7h-450q-10 0 -17 -7t-7 -16.5t7 -16.5t17 -7zM232 393h568q10 0 17 7t7 17t-7 16.5t-17 6.5h-568q-10 0 -17 -6.5t-7 -16.5t7 -17t17 -7zM583 346h-351q-10 0 -17 -7t-7 -16.5t7 -16.5t17 -7h351q10 0 17 7
t7 16.5t-7 16.5t-17 7zM583 255h-351q-10 0 -17 -6.5t-7 -16.5t7 -17t17 -7h351q10 0 17 7t7 17t-7 16.5t-17 6.5zM834 361l-107 -106l-43 42q-9 9 -22.5 9t-23 -9.5t-9.5 -22.5t10 -23l60 -59q2 -4 4 -6q10 -10 24 -10t23 10q3 2 5 6l125 124q9 9 9 22.5t-9.5 23t-22.5 9.5
t-23 -10z" />
    <glyph glyph-name="uniE668" unicode="&#xe668;" 
d="M178 704h31v47h-15q-45 0 -80 -28.5t-44 -71.5h46q3 23 21 38t41 15zM114 604h-48v-90h48v90zM347 751h-91v-47h91v47zM114 296h-48v-118h48v118zM114 467h-48v-124h48v124zM492 751h-98v-47h98v47zM911 651h44q-9 43 -44 71.5t-80 28.5h-16v-47h33q24 0 41.5 -15
t21.5 -38zM768 751h-92v-47h92v47zM629 751h-90v-47h90v47zM115 131h-47q7 -46 42.5 -77.5t83.5 -31.5h15v47h-31q-26 0 -44.5 18t-18.5 44zM848 69h-33v-47h16q48 0 83.5 31.5t42.5 77.5h-45q0 -26 -18.5 -44t-45.5 -18zM913 178h46v118h-46v-118zM676 22h92v47h-92v-47z
M913 604v-90h46v90h-46zM913 343h46v124h-46v-124zM539 22h90v47h-90v-47zM256 22h91v47h-91v-47zM394 22h98v47h-98v-47zM326 510.5q0 -9.5 7 -16.5t17 -7h450q10 0 17 7t7 16.5t-7 16.5t-17 7h-450q-10 0 -17 -7t-7 -16.5zM232 393h568q10 0 17 7t7 17t-7 16.5t-17 6.5
h-568q-10 0 -17 -6.5t-7 -16.5t7 -17t17 -7zM232 346q-10 0 -17 -7t-7 -16.5t7 -16.5t17 -7h351q10 0 17 7t7 16.5t-7 16.5t-17 7h-351zM607 232q0 10 -7 16.5t-17 6.5h-351q-10 0 -17 -6.5t-7 -16.5t7 -17t17 -7h351q10 0 17 7t7 17zM834 202l-47 47l46 46q9 10 9 23
t-9.5 22.5t-23 9.5t-22.5 -9l-46 -46l-47 46q-10 10 -23 10.5t-22.5 -9t-9.5 -23t10 -23.5l47 -47l-47 -46q-9 -10 -9.5 -23t9 -22.5t23 -9.5t23.5 10l46 46l47 -48q10 -9 23.5 -9t23 9.5t9.5 23t-10 22.5z" />
    <glyph glyph-name="uniE669" unicode="&#xe669;" 
d="M831 751h-637q-53 0 -90.5 -37.5t-37.5 -90.5v-473q0 -53 37.5 -90.5t90.5 -37.5h637q53 0 90.5 37.5t37.5 90.5v473q0 53 -37.5 90.5t-90.5 37.5zM913 133q0 -27 -19 -45.5t-46 -18.5h-670q-26 0 -45 18.5t-19 45.5v507q0 27 19 45.5t45 18.5h670q27 0 46 -18.5
t19 -45.5v-507zM506 207q-15 0 -25.5 -10.5t-10.5 -25.5q0 -17 10.5 -26.5t25.5 -9.5q14 0 24.5 9.5t10.5 26.5q0 15 -10 25.5t-25 10.5zM505 250q15 0 25.5 10.5t10.5 25.5v284q0 15 -10.5 25.5t-25.5 10.5t-25.5 -10.5t-10.5 -25.5v-284q0 -15 10.5 -25.5t25.5 -10.5z" />
    <glyph glyph-name="uniE66A" unicode="&#xe66a;" 
d="M916 -21q0 -17 -12 -29t-28.5 -12t-28.5 12t-12 29h-1q-15 118 -103 199.5t-209 84.5h-4h-6h-6h-4q-121 -3 -209 -84.5t-103 -199.5h-1q0 -17 -12 -29t-28.5 -12t-28.5 12t-12 29v3q0 6 2 14q15 106 80 190.5t162 125.5q-57 40 -90.5 101.5t-33.5 133.5q0 118 83 201
t201 83t201 -83t83 -201q0 -72 -33.5 -133.5t-90.5 -101.5q99 -42 164.5 -129.5t78.5 -196.5l1 -2v-2v-3zM715 547q0 84 -59.5 143.5t-143.5 59.5t-143.5 -59.5t-59.5 -143.5t59.5 -143.5t143.5 -59.5t143.5 59.5t59.5 143.5z" />
    <glyph glyph-name="uniE66B" unicode="&#xe66b;" 
d="M909 39q-20 -14 -40 -2l-3 2q-13 8 -16 21.5t0 22.5l4 10q6 19 6 36q0 49 -34 83t-82 34q-41 0 -72 -25t-41 -63q-1 -8 -5 -15q-9 -13 -24.5 -17t-29.5 4l-23 10v0v1q-96 46 -167.5 123.5t-109.5 176.5q-8 18 -10 35v4q0 14 10 25t25 12v2q42 7 70 39t28 76
q0 48 -34.5 82t-82.5 34t-82.5 -34t-34.5 -82v-8q0 -7 -0.5 -15t0 -22t1.5 -28.5t4.5 -33.5t8.5 -38t13 -42t19 -46q45 -110 127.5 -196t191.5 -136q19 -10 38 -17q69 -26 149 -35q10 -2 44.5 0.5t43.5 -5.5l3 -2q13 -8 16.5 -23t-4.5 -29q-4 -11 -20 -15h1h1
q-2 0 -3.5 -0.5t-4.5 -1t-6 -1.5t-7 -2h-8l-8 -2q-4 0 -9 -0.5t-9 -0.5q-20 0 -41 4q-128 15 -242 75t-197 151t-131 212t-49 252q0 1 -0.5 3.5t-0.5 3.5q0 4 1 14l3 26q15 67 68 111t123 44q81 0 138 -57t57 -138q0 -61 -34 -110t-89 -71q32 -77 89 -138t131 -99
q25 48 71.5 77.5t102.5 29.5q81 0 138 -57t57 -138q0 -32 -8 -55.5t-13 -28.5t-8 -7z" />
    <glyph glyph-name="uniE66C" unicode="&#xe66c;" 
d="M251 520.5q0 -13.5 9.5 -23t23 -9.5t23 9.5t9.5 23t-9.5 23t-23 9.5t-23 -9.5t-9.5 -23zM463 520.5q0 -13.5 9.5 -23t23 -9.5t23 9.5t9.5 23t-9.5 23t-23 9.5t-23 -9.5t-9.5 -23zM389 246q-54 0 -105 21q-5 2 -11 0l-115 -52l28 114q2 7 -2 12q-46 58 -46 129
q0 92 73.5 157.5t177.5 65.5q85 0 151.5 -45t89.5 -115h76q-24 99 -112.5 165t-204.5 66q-88 0 -162.5 -39.5t-117.5 -106.5t-43 -146q0 -89 55 -162l-39 -157q-2 -10 6 -17q4 -4 10 -4q4 0 7 2l157 71q61 -24 127 -24q22 0 48 3l-17 64q-17 -2 -31 -2zM912 151
q45 60 45 133q0 98 -77.5 167.5t-186.5 69.5t-186.5 -69.5t-77.5 -168t77.5 -168t186.5 -69.5q54 0 104 19l128 -57q3 -1 5 -1q5 0 9 3q6 5 4 13zM855 169l22 -91l-92 42q-4 2 -8 0q-40 -17 -84 -17q-83 0 -141.5 52.5t-58.5 126t58.5 125.5t141.5 52t141.5 -52t58.5 -126
q0 -56 -36 -102q-4 -4 -2 -10zM775 350q-11 0 -19 -8t-8 -19t8 -18.5t19 -7.5t18.5 7.5t7.5 18.5t-7.5 19t-18.5 8zM611.5 350q-10.5 0 -18.5 -8t-8 -19t8 -18.5t18.5 -7.5t18.5 7.5t8 18.5t-8 19t-18.5 8z" />
    <glyph glyph-name="uniE66D" unicode="&#xe66d;" 
d="M927 104l-150 -149q-2 -4 -5 -7q-12 -12 -29 -11q-16 -1 -28 11q-3 3 -5 7l-73 72q-11 11 -11 27t11.5 27.5t27.5 11.5t27 -12l51 -50l129 128q12 11 28 11t27 -11t11 -27t-11 -28zM772 209q0 -16 -11 -27.5t-27 -11.5q-19 0 -30 15q-42 47 -99.5 74.5t-122.5 29.5
q-1 0 -4.5 -0.5t-5.5 -0.5t-5.5 0.5t-4.5 0.5q-115 -4 -199.5 -81.5t-98.5 -190.5h-1v-1q0 -16 -11.5 -27t-27.5 -11t-27 11t-11 27l-1 4q0 7 3 14q15 101 77 181.5t154 120.5q-55 37 -87 96t-32 128q0 113 79.5 192.5t192 79.5t192.5 -79.5t80 -192.5q0 -69 -32 -128
t-87 -96q73 -32 129 -91q10 -6 15 -18q1 -1 6.5 -7t7.5 -9h-11v-2zM666 560q0 80 -57 137t-137.5 57t-137 -57t-56.5 -137t56.5 -137t137 -57t137.5 57t57 137z" />
    <glyph glyph-name="uniE66E" unicode="&#xe66e;" 
d="M958 72q-2 -36 -27.5 -61t-61.5 -26l-720 1q-36 1 -60.5 27t-24.5 62v47v54q0 19 13 32t31.5 13t31.5 -13t13 -32v-101h1l-1 90q0 -51 14 -69t54 -21h599l-41 1q54 0 71.5 16.5t17.5 70.5l1 13q0 19 13 32t31.5 13t31.5 -13t13 -32v-104zM868 75v72v-72zM548 146
q0 -1 -1.5 -3t-2.5 -3q-13 -14 -32 -13q-20 -1 -33 13q-1 1 -5 6l-174 174q-13 13 -13 31.5t13 31.5t31.5 13t31.5 -13l103 -102v470q0 19 13 32t31.5 13t32 -13t13.5 -32l-1 -472l105 104q13 13 31.5 13t31.5 -13t13 -31.5t-13 -31.5z" />
    <glyph glyph-name="uniE66F" unicode="&#xe66f;" 
d="M918.5 282q-16.5 0 -28.5 11.5t-12 28.5l-1 407l-607 -1q-17 0 -28.5 12t-11.5 29t11.5 28.5t28.5 11.5l566 1v-1h43q29 0 51.5 -18t28.5 -46v-423q0 -17 -12 -28.5t-28.5 -11.5zM837 619l1 -257v-1q-1 -1 -1 -2l1 -167q-4 -31 -27 -51.5t-54 -20.5h-43h-225l-152 -151
q-12 -12 -28.5 -12t-28.5 11.5t-12 28.5t12 29l157 156q12 19 34 19h1h1h283v64v-9v15v133v2v2v136q0 40 -9.5 51t-44.5 11h54v-59v60h-60q4 0 6 -1l-13 1l-489 -1q-32 -1 -41.5 -9.5t-10.5 -38.5v-318q2 -24 12 -31t43 -8l-55 1v-1h163q16 0 28 -12t12 -28.5t-12 -28.5
t-28 -12h-120h-43q-33 0 -56.5 22.5t-24.5 55.5v409q0 33 22.5 56t54.5 24l614 1q30 0 52.5 -20t26.5 -49zM148 606v-28v28h26h-26zM706 201q32 1 41 10.5t9 44.5v-54zM706 201h-31h31zM203 201h27h-27zM821 728h55l1 -46q-1 29 -11 37t-45 9zM821 728h-27h27zM877 647v35
v-35z" />
    <glyph glyph-name="uniE670" unicode="&#xe670;" 
d="M510 833q-91 0 -174 -35.5t-143 -95.5t-95.5 -143t-35.5 -174t35.5 -174t95.5 -143t143 -95.5t174 -35.5t174 35.5t143 95.5t95.5 143t35.5 174t-35.5 174t-95.5 143t-143 95.5t-174 35.5zM510 798q112 0 207.5 -55.5t151 -150.5t55.5 -207q0 -148 -94 -262q-8 27 -38 40
q-74 31 -181 62q-4 2 -5 5t-1 17q0 18 13 45q14 30 18 63q19 21 27 65q7 34 0 54l-2 3q-4 20 6 77q4 19 -3 47.5t-26 53.5q-40 51 -116 55h-34q-75 -4 -115 -55q-19 -25 -26 -53.5t-3 -47.5q10 -57 6 -76q-1 -2 -1 -4q-8 -20 -1 -54q9 -44 27 -65q4 -33 18 -63q7 -16 7 -46
q0 -14 -0.5 -17t-4.5 -4q-105 -31 -180 -64q-24 -10 -31 -31q-88 112 -88 255q0 112 55.5 207t151 150.5t207.5 55.5zM510 -29q-86 0 -163.5 34t-134.5 94q2 1 4 1v10q0 14 12 20q74 32 178 62q13 5 20 15t8 18t1 21q0 38 -11 61q-12 25 -15 52l-2 10l-7 8q-12 14 -19 49
q-5 25 -1 35q2 5 3 8v1q6 27 -6 90q-2 12 3 33.5t20 40.5q30 38 89 42h32q60 -4 90 -42q15 -19 20 -40.5t3 -33.5q-12 -63 -6 -90v-1v-1q1 -2 2 -5l1 -1q4 -11 -1 -36q-7 -35 -19 -49l-7 -8l-1 -10q-4 -27 -16 -52q-16 -35 -16 -60q0 -14 1 -21.5t8 -18t21 -14.5
q106 -32 178 -61q18 -8 18 -22v-13q3 -2 7 -3q-58 -58 -133.5 -90.5t-160.5 -32.5z" />
    <glyph glyph-name="uniE671" unicode="&#xe671;" 
d="M510 833q-91 0 -174 -35.5t-143 -95.5t-95.5 -143t-35.5 -174t35.5 -174t95.5 -143t143 -95.5t174 -35.5t174 35.5t143 95.5t95.5 143t35.5 174t-35.5 174t-95.5 143t-143 95.5t-174 35.5zM231 80q61 61 185 61h17v90l-21 -4q-7 -2 -17 -2q-74 0 -151 67q82 36 98 142v2
q0 5 1 13.5t4.5 32t9.5 45.5t18 49t27.5 47t41 35.5t55.5 19.5q5 0 8 0.5t19 0t29 -4.5t31.5 -14t32.5 -25q69 -71 63 -244v-2v-2q1 -4 2 -9t6.5 -17.5t13 -23.5t21.5 -23.5t30 -20.5q-60 -59 -164 -64l-18 -1l11 -93l16 1h6q21 0 45 -3t65 -17.5t69 -39.5
q-118 -105 -275 -105q-79 0 -151 28.5t-128 80.5zM810 100q-24 22 -55 37q-62 31 -141 33l-3 26q38 3 71 14.5t52.5 23.5t36 27t21.5 21t7 10l14 21l-24 6q-19 4 -34 14t-23 23t-11 21t-5 15q6 185 -72 267q-52 54 -128 54q-15 0 -22 -1q-114 -13 -162 -148
q-22 -62 -24 -126q-5 -31 -17 -54.5t-24 -35.5t-27 -19.5t-21 -8.5l-10 -3l-36 -4l26 -25q98 -98 200 -97v-16q-126 -4 -193 -71q-52 57 -81 129t-29 152q0 112 55.5 207t151 150.5t207.5 55.5t207.5 -55.5t151 -150.5t55.5 -207q0 -81 -30 -154.5t-84 -130.5z" />
    <glyph glyph-name="uniE672" unicode="&#xe672;" 
d="M932.5 183q-10.5 0 -17.5 -7t-7 -17v-124q0 -21 -14.5 -35.5t-35.5 -14.5h-694q-20 0 -34.5 14.5t-14.5 35.5v124q0 10 -7.5 17t-17.5 7t-17.5 -7t-7.5 -17v-124q0 -41 29 -70t70 -29h694q41 0 70 29t29 70v124q0 10 -7 17t-17.5 7zM502 136q4 -2 9 -2q10 0 18 7l371 372
q8 7 8 17.5t-7.5 17.5t-17.5 7t-18 -7l-329 -329v609q0 10 -7.5 17.5t-17.5 7.5t-17.5 -7.5t-7.5 -17.5v-669q0 -17 16 -23zM345 290q7 -7 17.5 -7t17.5 7t7 17.5t-7 17.5l-223 223q-7 7 -17.5 7t-17.5 -7t-7 -17.5t7 -17.5z" />
    <glyph glyph-name="uniE673" unicode="&#xe673;" 
d="M957 393q0 6 -1 12l-81 354q-1 6 -5 11q-14 27 -39 43q-27 17 -59 17h-516h-6h-5h-137h-6q-15 0 -26 -10.5t-11 -26.5v-444q0 -16 11 -26.5t26 -10.5h5h123v-1q86 -6 145 -67.5t62 -147.5q-1 -5 -1 -10q0 -44 32 -76t76 -32q39 0 68 24t38 60q10 42 10 85q0 66 -22 127
l207 1h6q59 2 90 52q18 30 16 66zM139 756h75v-370h-74zM878 366q-11 -18 -33 -17v0l-262 -1q-15 0 -26 -10.5t-11 -26.5q0 -8 4 -16h-1q23 -42 32 -89h1q0 -3 1 -7t2.5 -19.5t1.5 -32.5q0 -13 -1.5 -27.5t-3.5 -22.5l-1 -8v-1v-1q0 -14 -10.5 -24t-24.5 -10t-24.5 10
t-10.5 24v3q0 29 -5 59q-3 16 -9 34h-1q-23 71 -78.5 123t-129.5 71v379h484h5q8 -1 14 -5q9 -5 13 -16v1l78 -340l-1 -1q6 -15 -3 -29z" />
    <glyph glyph-name="uniE674" unicode="&#xe674;" 
d="M957 416q0 -6 -1 -13l-81 -354q-1 -6 -5 -12q-14 -27 -39 -43q-27 -17 -59 -17h-516h-6h-5h-137h-6q-15 0 -26 11t-11 26v446q0 16 11 26.5t26 10.5h5h123v1q86 6 145 68t62 148q-1 5 -1 10q0 45 32 76.5t76 31.5q39 0 68 -24t38 -60q10 -42 10 -85q0 -66 -22 -128h207
q3 0 6 -1q59 -2 90 -52q18 -30 16 -66zM139 52h75v371h-74zM878 443q-11 18 -33 17v0l-262 1q-15 0 -26 10.5t-11 26.5q0 8 4 16h-1q23 43 32 90h1q0 2 1 6.5t2.5 19.5t1.5 33q0 13 -1.5 27.5t-3.5 22.5l-1 8v1q0 15 -10.5 25t-24.5 10t-24.5 -10t-10.5 -25v-2q0 -29 -5 -59
q-3 -16 -9 -34h-1q-23 -72 -78.5 -124t-129.5 -71v-380h484q2 0 5 -1q8 1 14 5q9 6 13 16l78 341h-1q6 16 -3 30z" />
    <glyph glyph-name="uniE675" unicode="&#xe675;" 
d="M929 423h-377v377q0 13 -9.5 22.5t-22.5 9.5h-15q-13 0 -22 -9.5t-9 -22.5v-377h-377q-13 0 -22.5 -9t-9.5 -23v-14q0 -13 9.5 -22.5t22.5 -9.5h377v-377q0 -13 9 -22.5t22 -9.5h15q13 0 22.5 9.5t9.5 22.5v377h377q13 0 22 9.5t9 22.5v14q0 14 -9 23t-22 9z" />
    <glyph glyph-name="uniE676" unicode="&#xe676;" 
d="M955 108l-157 366l42 33q9 8 20.5 19.5t31.5 36t34 56t15 62.5q3 57 -40 100t-100 40q-31 -1 -62.5 -15t-56 -34t-36.5 -32t-20 -21l-49 -61l14 17l-376 149q-20 8 -36 -8l-59 -59q-10 -9 -10 -23t10 -24l277 -277l-142 -177l-131 14q-16 2 -27 -9l-24 -24
q-10 -10 -10 -24t10 -23l72 -73q-16 -24 -17.5 -48t16.5 -45q21 -18 45 -16.5t48 18.5l72 -73q10 -10 24 -10t24 10l23 24q12 11 10 27l-15 132l-25 -21l208 167l-5 -4l277 -278q10 -9 23.5 -9t23.5 9l71 71q16 16 7 37zM203 793l366 -145l-109 -136l-269 269zM418 459
l-274 275l24 23l271 -272l-32 -40zM120 237l111 -12l-65 -81l-69 69zM226 59q-8 -7 -17.5 -11.5t-21.5 -6.5t-19 7q-9 7 -7 19.5t7 22t12 17.5l472 591q6 7 16.5 17t32 28.5t49 31t52.5 13.5q43 2 75.5 -30.5t30.5 -74.5q-1 -26 -13.5 -53.5t-31 -49t-28 -31.5t-17.5 -16z
M357 0l-24 -23l-69 69l-16 -13l96 78zM853 24l-274 275l26 21l272 -272zM901 71l-269 270l139 111l153 -357z" />
    <glyph glyph-name="uniE677" unicode="&#xe677;" 
d="M958 397q0 -7 -1 -13l-81 -355q-1 -6 -5 -12q-14 -27 -39 -43q-27 -17 -59 -17h-518h-5h-6h-137h-6q-16 0 -26.5 11t-10.5 26v447q0 16 11 27t26 11q2 0 5 -1l123 1q86 6 145.5 68.5t61.5 148.5v10q0 44 31.5 76t76.5 32q39 0 68 -24t38 -60q10 -42 10 -85
q0 -67 -22 -129h208q3 0 6 -1q59 -2 90 -52q18 -30 16 -66zM138 32h75v372h-75v-372zM879 424q-12 18 -33 17v0l-263 1q-15 0 -26 10.5t-11 26.5q0 9 4 16l-1 1q23 42 32 89h1q0 3 1 7.5t2.5 19.5t1.5 32q0 14 -1.5 28.5t-3.5 22.5l-1 8v1q0 15 -10.5 25t-24.5 10t-24.5 -10
t-10.5 -25v-2q0 -29 -5 -59q-4 -17 -10 -35q-23 -72 -79 -124t-130 -71v-381l486 -1h5q7 1 14 5q9 6 13 16l78 342h-1q5 16 -3 30z" />
    <glyph glyph-name="uniE678" unicode="&#xe678;" 
d="M511 833q-91 0 -174 -35.5t-142.5 -95.5t-95 -142.5t-35.5 -173.5t35.5 -174t95 -142.5t142.5 -95t174 -35.5t173.5 35.5t142.5 95t95.5 142.5t35.5 174t-35.5 173.5t-95.5 142.5t-142.5 95.5t-173.5 35.5zM510.5 -21q-110.5 0 -204 54.5t-148 148t-54.5 204t54.5 204.5
t148 148t204 54t204 -54t148 -148t54.5 -204.5t-54.5 -204t-148 -148t-204 -54.5zM681 287q10 -19 13 -42t-3.5 -48.5t-24 -46t-53.5 -33.5t-87 -12q-137 0 -190 53q49 12 102 49.5t88 90.5q27 41 49 94q4 -5 8 -8q5 -5 35.5 -28.5t44.5 -37.5q-10 12 -32.5 36t-28.5 31
q-11 13 -20 24q31 82 44.5 167t10.5 118q-2 18 -13 20t-21 -5l-10 -7q-1 0 -2.5 -1t-2.5 -2q-6 -4 -15.5 -12t-30.5 -34.5t-32 -55t-7.5 -71t30.5 -84.5q-21 -47 -48 -89q-41 -64 -84.5 -91.5t-70.5 -25.5q-14 15 -35 15q-19 0 -32.5 -13.5t-14.5 -31.5v-2q-4 -36 26 -47
q37 -44 108.5 -73t165.5 -14q64 10 103.5 38.5t50 63.5t3 71t-31.5 63q3 -3 5 -10t3 -9zM597 667q3 2 2 -1q-13 -99 -53 -194q-38 99 51 195z" />
    <glyph glyph-name="uniE679" unicode="&#xe679;" 
d="M883 811h-743q-31 0 -52.5 -22t-21.5 -53v-557q0 -31 21.5 -53t52.5 -22h74v-148l149 148h520q31 0 53 22t22 53v557q0 31 -22 53t-53 22zM883 179h-743v557h743v-557zM781 476h-520v-37h520v37zM781 365h-520v-38h520v38zM781 588h-520v-38h520v38z" />
    <glyph glyph-name="uniE67A" unicode="&#xe67a;" 
d="M858 830h-693q-41 0 -70 -29t-29 -70v-495q0 -41 29 -70t70 -29h99v-198l198 198h396q41 0 70 29t29 70v495q0 41 -29 70t-70 29zM858 236h-693v495h693v-495zM759 582h-495v-49h495v49zM759 434h-495v-50h495v50z" />
    <glyph glyph-name="uniE67B" unicode="&#xe67b;" 
d="M885 794h-746q-31 0 -53 -21.5t-22 -52.5v-523q0 -31 22 -52.5t53 -21.5h523l148 -148v148h75q31 0 53 21.5t22 52.5v523q0 31 -22 52.5t-53 21.5zM922 197q0 -15 -11 -26t-26 -11h-75h-37v-37v-58l-84 84l-11 11h-16h-523q-16 0 -26.5 11t-10.5 26v523q0 15 10.5 26
t26.5 11h746q15 0 26 -11t11 -26v-523zM511.5 496q-15.5 0 -26 -11t-10.5 -26.5t10.5 -26.5t26 -11t26.5 11t11 26.5t-11 26.5t-26.5 11zM661.5 496q-15.5 0 -26.5 -11t-11 -26.5t11 -26.5t26.5 -11t26 11t10.5 26.5t-10.5 26.5t-26 11zM366.5 496q-15.5 0 -26.5 -11
t-11 -26.5t11 -26.5t26.5 -11t26 11t10.5 26.5t-10.5 26.5t-26 11z" />
    <glyph glyph-name="uniE67C" unicode="&#xe67c;" 
d="M884 790h-745q-31 0 -52.5 -22t-21.5 -52v-522q0 -31 21.5 -53t52.5 -22h523l147 -147v147h75q31 0 52.5 22t21.5 53v522q0 30 -21.5 52t-52.5 22zM921 194q0 -15 -11 -26t-26 -11h-75h-37v-38v-57l-84 84l-11 11h-15h-523q-15 0 -26 11t-11 26v522q0 15 11 26t26 11h745
q15 0 26 -11t11 -26v-522zM476 264q-7 0 -11.5 -5t-4.5 -11.5t4.5 -11t11.5 -4.5t11.5 4.5t4.5 11t-4.5 11.5t-11.5 5zM523 671q-59 0 -100.5 -41.5t-41.5 -99.5q0 -7 4.5 -11.5t11 -4.5t11.5 4.5t5 11.5q0 45 32.5 77.5t78 32.5t78 -32.5t32.5 -77.5t-32.5 -77.5
t-78.5 -32.5h-31q-13 0 -22.5 -9t-9.5 -22v-31v-16q0 -7 4.5 -11.5t11.5 -4.5t11.5 4.5t4.5 11.5v16v15q0 7 4.5 11.5t11.5 4.5h15q59 0 101 41.5t42 99.5t-42 99.5t-101 41.5z" />
    <glyph glyph-name="uniE67D" unicode="&#xe67d;" 
d="M511 832q-91 0 -174 -35.5t-143 -95.5t-95.5 -143t-35.5 -174t35.5 -174t95.5 -143t143 -95.5t174 -35.5t174 35.5t143 95.5t95 143t35 174t-35 174t-95 143t-143 95.5t-174 35.5zM510.5 794q111.5 0 206 -55t149.5 -149.5t55 -205.5q0 -148 -95 -262q-81 34 -197 68
q-4 1 -5 4.5t-1 18.5q0 20 14 50q15 33 20 68q20 23 30 71q7 38 -1 60q-1 3 -2 3q-1 7 1 34t6 50q4 21 -3.5 52.5t-28.5 58.5q-43 55 -126 60h-38q-82 -5 -125 -60q-21 -27 -28.5 -58.5t-3.5 -52.5q4 -23 6 -50t0 -34q0 -1 -1 -3q-8 -22 -1 -60q10 -48 30 -71q4 -35 19 -68
q9 -17 9 -51q0 -15 -1 -18t-5 -5q-114 -33 -197 -70q-97 115 -97 265q0 111 55 205.5t149.5 149.5t206 55zM224 90q88 36 181 64q11 3 18 9.5t10 16t3.5 15.5t0.5 17q0 42 -12 67q-14 31 -17 62q-1 8 -6 13q-15 12 -23 55q-6 28 -1 39q2 4 2 8q3 15 1 45t-6 55
q-3 13 2.5 36.5t21.5 44.5q33 41 97 46h36q65 -4 97 -46q17 -21 22.5 -44.5t2.5 -36.5q-4 -25 -6.5 -55t0.5 -45q1 -3 3 -8q4 -12 -1 -39q-9 -43 -23 -55q-6 -5 -6 -13q-3 -31 -17 -62q-18 -38 -18 -66q0 -11 0.5 -17.5t3 -16t10 -15.5t18.5 -10q95 -28 181 -62
q-56 -56 -130.5 -87.5t-157.5 -31.5q-82 0 -156 31t-131 86z" />
    <glyph glyph-name="uniE67E" unicode="&#xe67e;" 
d="M66 699v-89h893v89h-893zM66 342h893v89h-893v-89zM66 74h893v89h-893v-89z" />
    <glyph glyph-name="uniE67F" unicode="&#xe67f;" horiz-adv-x="1093" 
d="M875 396q-7 0 -12 -5t-5 -12v-376q0 -31 -22 -53t-53 -22h-133v261q0 7 -5 12t-12 5h-186q-8 0 -13 -5t-5 -12v-261h-132q-31 0 -53 22t-22 53v376q0 7 -5 12t-12 5t-12 -5t-5 -12v-376q0 -46 32 -78t77 -32h486q45 0 77 32t32 78v376q0 7 -5 12t-12 5zM464 172h152v-244
h-152v244zM1043 523l-123 89q-12 8 -21 26t-9 33v146q0 26 -18.5 44.5t-44.5 18.5h-44q-26 0 -44.5 -18.5t-18.5 -44.5v-49q0 -7 -1 -9q-3 0 -9 4l-128 92q-28 20 -30 22q-6 5 -12 5q-7 0 -12 -5q-3 -2 -37 -26l-455 -328q-21 -16 -25 -41.5t11 -46.5l17 -25q19 -25 51 -25
h7q4 1 8 3l435 314l434 -314q4 -2 9 -3h6q33 0 51 25l18 25q15 21 11 46.5t-26 41.5zM1030 454l-18 -24q-7 -11 -22 -11l-440 318q-11 7 -21 0l-440 -318q-14 0 -22 11l-17 25q-7 9 -5.5 21t11.5 19l455 328q23 17 29 21q2 -2 5 -4t8.5 -6t8.5 -7l128 -92q15 -10 29 -10
t24.5 11t10.5 32v49q0 12 8.5 20.5t20.5 8.5h44q12 0 20.5 -8.5t8.5 -20.5v-146q0 -23 12.5 -48.5t31.5 -38.5l123 -89q10 -7 12 -19t-5 -22z" />
    <glyph glyph-name="uniE680" unicode="&#xe680;" 
d="M838 642q-5 28 -27.5 47t-51.5 20h-619q-31 -3 -52 -26t-22 -54l1 -415q3 -31 26 -52t55 -21h43v-1l120 1q16 0 28 11.5t12 28.5t-12 29t-28 12l-163 -1v1h54q-32 1 -42 7.5t-12 30.5v320q1 29 10.5 37.5t40.5 9.5l491 1h14h-6h59v-60l-1 59l-52 1q34 -1 43 -11.5
t10 -49.5v-137q-1 -2 -1 -5l1 -133v-16v8v-62l-282 -1q-3 1 -5 0q-21 0 -33 -18l-157 -156q-12 -12 -12 -29t12 -29t28.5 -12t28.5 12l152 151l226 1h43q30 0 53 19.5t27 48.5v169v5v259zM148 627v-28v28h26h-26zM202 222h28h-28zM708 222h48l1 54q-1 -34 -9.5 -43.5
t-39.5 -10.5zM708 222h-32h32zM822 749q35 0 44.5 -8t10.5 -37v45h-55zM822 749q-8 1 -27 1zM959 766q-6 28 -28 46.5t-51 18.5h-44h-566q-17 0 -29 -12t-12 -29t12 -28.5t29 -11.5h608v-407q0 -17 12 -29t29 -12t28.5 12t11.5 29v423zM877 668v36v-36zM242 389h426
q12 0 19.5 8t7.5 19t-7.5 19t-19.5 8h-426q-11 0 -19 -8t-8 -19t8 -19t19 -8zM242 498h426q12 0 19.5 7.5t7.5 19t-7.5 19.5t-19.5 8h-426q-11 0 -19 -8t-8 -19.5t8 -19t19 -7.5zM242 280h298q11 0 19 8t8 19.5t-8 19.5t-19 8h-298q-11 0 -19 -8t-8 -19.5t8 -19.5t19 -8z
" />
    <glyph glyph-name="uniE681" unicode="&#xe681;" 
d="M512 896q-104 0 -198.5 -40.5t-163.5 -109.5t-109.5 -163.5t-40.5 -198.5t40.5 -199t109.5 -163.5t163.5 -109t198.5 -40.5t199 40.5t163.5 109t109 163.5t40.5 199t-40.5 198.5t-109 163.5t-163.5 109.5t-199 40.5zM451 136q-8 -9 -19.5 -9t-19.5 9q-2 2 -52 51l-98 98
l-50 49q-8 8 -8 19.5t8 19.5t19.5 8t19.5 -8l13 -13q12 -12 30 -30.5t39 -39.5l42 -42l34 -34q0 -1 5 -6.5t9 -8.5t9 -2q3 0 6.5 2.5t5.5 4.5l7 7l5 5q17 16 44 43.5t58 58.5l64 64q33 33 63 63.5t53.5 54.5t37.5 39l15 15q8 8 19.5 8t19.5 -8q8 -9 6 -20t-11 -19l-93 -95
q-93 -94 -186.5 -188.5t-94.5 -95.5zM830 515z" />
    <glyph glyph-name="uniE682" unicode="&#xe682;" 
d="M375 83l-272 272l-60 -60l332 -332l606 606l-61 60z" />
    <glyph glyph-name="uniE683" unicode="&#xe683;" 
d="M530 407q22 10 41 20q20 10 31 14q12 5 18 5q12 0 20.5 -8t8.5 -19q0 -7 -4 -14t-9 -9q-43 -17 -94 -24q9 -8 23 -23l14 -15q6 -8 14 -17q9 -11 12 -16q4 -6 4 -14q0 -11 -8 -19t-20 -8q-13 0 -28.5 19.5t-40.5 70.5q-24 -45 -33 -60t-17 -22.5t-18 -7.5q-12 0 -20 8.5
t-8 18.5q0 9 3 13q31 42 63 72q-27 4 -49 9q-23 6 -46 16q-4 2 -8 9t-4 13q0 11 8.5 19t19.5 8q8 0 20 -5t30 -14q17 -8 41 -20q-4 21 -6.5 47.5t-2.5 36.5q0 12 7.5 21t19.5 9t20 -9t8 -23q0 -4 -2 -16q0 -8 -3 -28q-2 -18 -5 -38z" />
    <glyph glyph-name="uniE684" unicode="&#xe684;" 
d="M864 896h-704q-38 0 -67 -29t-29 -67v-838q0 -35 29 -62.5t67 -27.5h531q32 0 51 19l199 186q19 19 19 51v672q0 38 -29 67t-67 29zM723 -26v122h128zM890 166h-167q-29 0 -49.5 -20.5t-20.5 -49.5v-154h-493q-10 0 -18 8t-8 18v832q0 10 8 18t18 8h710q10 0 18 -8t8 -18
v-634h-6zM781 646h-563q-15 0 -27 -9t-12 -23q10 -38 39 -38h563q15 0 26.5 9t11.5 23q0 16 -10 27t-28 11zM595 454h-377q-15 0 -27 -9t-12 -23q0 -32 39 -32h377q15 0 27 9.5t12 23t-12 22.5t-27 9z" />
  </font>
</defs>
</svg>
